<svg viewBox="0 0 512 512" xml:space="preserve" xmlns="http://www.w3.org/2000/svg" enable-background="new 0 0 512 512"><path d="M445.14 61.86C448.76 65.48 451 70.48 451 76c0 11.05-8.95 20-20 20H81c-5.52 0-10.52-2.24-14.14-5.86A19.938 19.938 0 0 1 61 76c0-11.05 8.95-20 20-20h350c5.52 0 10.52 2.24 14.14 5.86z" fill="#9c9dd6" class="fill-ffebbe"></path><path d="M66 86.333c0-11.05 8.95-20 20-20h350c5.52 0 10.52 2.24 14.14 5.86.205.206.39.431.586.645a19.949 19.949 0 0 0-5.586-10.979A19.94 19.94 0 0 0 431 56H81c-11.05 0-20 8.95-20 20 0 5.207 2.01 9.936 5.274 13.496A19.988 19.988 0 0 1 66 86.333z" fill="#5e63ff" class="fill-e5d0a8"></path><path d="M81 136V96h350v250H81V136z" fill="#e0e0e0" class="fill-57606f"></path><path d="M91.167 146.667v-40H431V96H81v250h10.167z" fill="#78787a" class="fill-414a56"></path><path d="M321 346v40H191v-40z" fill="#5e63ff" class="fill-ff7979"></path><path d="M199.833 355.166H321V346H191v40h8.833z" fill="#3537bd" class="fill-d65b5b"></path><path d="M391 234.35v10.79h-41.38v-7.95l7.54-6.56c12.74-10.96 18.939-17.26 19.12-23.82 0-4.58-2.87-8.21-9.61-8.21-5.02 0-9.42 2.42-12.47 4.67l-3.86-9.41c4.391-3.2 11.22-5.79 19.12-5.79 13.19 0 20.46 7.43 20.46 17.61 0 9.41-7.09 16.92-15.53 24.18l-5.38 4.31v.18H391zM343.52 188.59l-2.779 10.45c-2.79-1.13-6.65-2.16-11.49-2.16-10.87 0-19.3 6.3-19.3 19.25 0 11.65 7.18 18.99 19.38 18.99 4.13 0 8.71-.86 11.41-1.9l2.06 10.28c-2.51 1.2-8.17 2.5-15.53 2.5-20.92 0-31.689-12.52-31.689-29.09 0-19.86 14.72-30.91 33.04-30.91 7.088 0 12.478 1.38 14.898 2.59zM284.55 186.95l3.32 58.19h-13.38l-.891-22.28c-.27-6.99-.54-15.45-.54-23.91h-.27c-1.89 7.42-4.4 15.71-6.73 22.53l-7.369 22.71h-10.68l-6.46-22.54c-1.98-6.82-4.04-15.1-5.48-22.7h-.18c-.36 7.86-.63 16.83-1.07 24.09l-1.08 22.1h-12.66l3.86-58.19h18.23l5.92 19.42c1.88 6.74 3.77 13.99 5.12 20.81h.27c1.7-6.73 3.77-14.42 5.74-20.89l6.46-19.34h17.87zM166.6 226.92h46.32v8.03H166.6zM166.6 209.05h46.32v8.03H166.6zM159.6 234.35v10.79H121v-58.19h37.34v10.79h-23.61v12.09H157v10.7h-22.27v13.82z" fill="#000000" class="fill-000000"></path><path d="M191 351H81a5 5 0 0 1-5-5V96a5 5 0 0 1 10 0v245h105a5 5 0 1 1 0 10zM431 351H321c-2.762 0-5-2.238-5-5s2.238-5 5-5h105V96a5 5 0 1 1 10 0v250a5 5 0 0 1-5 5z" fill="#000000" class="fill-000000"></path><path d="M431 101H81c-6.674 0-12.952-2.601-17.675-7.324C58.601 88.952 56 82.674 56 76c0-13.785 11.215-25 25-25h350c6.674 0 12.951 2.601 17.675 7.324C453.398 63.048 456 69.325 456 76c0 13.785-11.215 25-25 25zM81 61c-8.271 0-15 6.729-15 15a14.9 14.9 0 0 0 4.396 10.605A14.9 14.9 0 0 0 81 91h350c8.271 0 15-6.729 15-15a14.9 14.9 0 0 0-4.396-10.604A14.898 14.898 0 0 0 431 61H81zM321 391H191a5 5 0 0 1-5-5v-40a5 5 0 0 1 5-5h130a5 5 0 0 1 5 5v40a5 5 0 0 1-5 5zm-125-10h120v-30H196v30z" fill="#000000" class="fill-000000"></path><path d="M171.001 461a5 5 0 0 1-3.428-8.64l74.38-70a4.998 4.998 0 0 1 7.068.214 5 5 0 0 1-.214 7.067l-74.38 70a4.982 4.982 0 0 1-3.426 1.359zM340.999 461c-1.229 0-2.46-.45-3.426-1.359l-74.38-70a5 5 0 0 1 6.853-7.281l74.38 70a5 5 0 0 1-3.427 8.64zM256 461a5 5 0 0 1-5-5v-70a5 5 0 1 1 10 0v70a5 5 0 0 1-5 5zM331 141H81a5 5 0 0 1 0-10h250a5 5 0 1 1 0 10zM371 141h-10a5 5 0 1 1 0-10h10a5 5 0 1 1 0 10z" fill="#000000" class="fill-000000"></path></svg>