<svg viewBox="0 0 64 64" xmlns="http://www.w3.org/2000/svg"><g data-name="30-Doctor"><path d="M23 11.62V17h-1a2.006 2.006 0 0 0-2 2v-5a6.278 6.278 0 0 1 3-2.38ZM44 14v5a2.006 2.006 0 0 0-2-2h-1v-5.38A6.278 6.278 0 0 1 44 14Z" fill="#40240f" class="fill-40240f"></path><path d="M53.19 51.95 54 55h-9v-3h8l.19-.05z" fill="#4a4cc2" class="fill-13969d"></path><path d="M51 55v8h-6v-8h6z" fill="#f2c4b2" class="fill-f2c4b2"></path><path d="m50 40-10.14-2.9L32 43l-7.86-5.9L14 40l-3.2 12H19v11h26V52h8l.19-.05ZM40 60h-3a2.006 2.006 0 0 1-2-2v-6h7v6a2.006 2.006 0 0 1-2 2Z" fill="#5e63ff" class="fill-34c1ad"></path><path d="M44 19v1.39a2.993 2.993 0 0 1-1.34 2.5L41 24a22.282 22.282 0 0 0-9-2 22.282 22.282 0 0 0-9 2l-1.66-1.11a2.993 2.993 0 0 1-1.34-2.5V19a2.006 2.006 0 0 1 2-2h1v-5.38A20.967 20.967 0 0 1 32 10a20.967 20.967 0 0 1 9 1.62V17h1a2.006 2.006 0 0 1 2 2Z" fill="#f2c4b2" class="fill-f2c4b2"></path><path d="M41 11.62A20.967 20.967 0 0 0 32 10a20.967 20.967 0 0 0-9 1.62A6.278 6.278 0 0 0 20 14V9a8 8 0 0 1 8-8h8a8 8 0 0 1 8 8v5a6.278 6.278 0 0 0-3-2.38Z" fill="#5e63ff" class="fill-34c1ad"></path><path d="M23 13.62v-2A6.278 6.278 0 0 0 20 14v2a6.278 6.278 0 0 1 3-2.38ZM41 11.62v2A6.278 6.278 0 0 1 44 16v-2a6.278 6.278 0 0 0-3-2.38Z" fill="#241408" class="fill-241408"></path><path d="M32 12a20.967 20.967 0 0 1 9 1.62v-2A20.967 20.967 0 0 0 32 10a20.967 20.967 0 0 0-9 1.62v2A20.967 20.967 0 0 1 32 12Z" fill="#f2a283" class="fill-f2a283"></path><path d="M42 52v6a2.006 2.006 0 0 1-2 2h-3a2.006 2.006 0 0 1-2-2v-6ZM39.86 37.1 32 43l-7.86-5.9L28 36l4 3 4-3 3.86 1.1zM36 30.08a9.156 9.156 0 0 1-8 0A9.045 9.045 0 0 1 23 24a22.282 22.282 0 0 1 9-2 22.282 22.282 0 0 1 9 2 9.045 9.045 0 0 1-5 6.08Z" fill="#4a4cc2" class="fill-13969d"></path><path d="M36 30.08V36l-4 3-4-3v-5.92a9.156 9.156 0 0 0 8 0Z" fill="#f2b59d" class="fill-f2b59d"></path><path d="M13 55h6v8h-6z" fill="#f2c4b2" class="fill-f2c4b2"></path><path d="M19 52v3h-9l.8-3H19z" fill="#4a4cc2" class="fill-13969d"></path><path d="M51 55h-6v8h3v-4a2 2 0 0 1 2-2h1ZM13 55h6v8h-3v-4a2 2 0 0 0-2-2h-1ZM36 30.08a9.156 9.156 0 0 1-8 0V36l.706.529L36 31.667Z" fill="#f2a283" class="fill-f2a283"></path><path d="M34.4 13.987a.32.32 0 0 1-.042.01c-.2.036-.353-.282-.353-.5 0-.061.023-1.5 2-1.5s2 1.439 2 1.5a.528.528 0 0 1-.225.45c-.145.089-.287.006-.4-.13-.055-.068-.1-.152-.157-.216a.761.761 0 0 0-.2-.142 2.943 2.943 0 0 0-.553-.251 1.6 1.6 0 0 0-1.486.327 2.117 2.117 0 0 1-.584.452ZM29.605 13.987a.32.32 0 0 0 .042.01c.2.036.353-.282.353-.5 0-.061-.023-1.5-2-1.5s-2 1.439-2 1.5a.528.528 0 0 0 .225.45c.145.089.287.006.4-.13.055-.068.1-.152.157-.216a.761.761 0 0 1 .2-.142 2.943 2.943 0 0 1 .553-.251 1.6 1.6 0 0 1 1.486.327 2.117 2.117 0 0 0 .584.452Z" fill="#43251a" class="fill-43251a"></path><path d="M39 7H28a3 3 0 0 1 0-6 8 8 0 0 0-8 8v5a6.278 6.278 0 0 1 3-2.38A20.967 20.967 0 0 1 32 10a20.967 20.967 0 0 1 9 1.62A6.278 6.278 0 0 1 44 14v-2a5 5 0 0 0-5-5Z" fill="#232599" class="fill-21abab"></path><path d="M41 9.62A20.967 20.967 0 0 0 32 8a20.967 20.967 0 0 0-9 1.62A6.278 6.278 0 0 0 20 12v2a6.278 6.278 0 0 1 3-2.38A20.967 20.967 0 0 1 32 10a20.967 20.967 0 0 1 9 1.62A6.278 6.278 0 0 1 44 14v-2a6.278 6.278 0 0 0-3-2.38Z" fill="#4a4cc2" class="fill-13969d"></path><path d="M47 54v-2h-2v3h9l-.266-1H47zM17 54h-6.733L10 55h9v-3h-2v2z" fill="#5e63ff" class="fill-107c82"></path><path d="M45 52v-7a2 2 0 0 1 2 2v5ZM19 52v-7a2 2 0 0 0-2 2v5Z" fill="#232599" class="fill-21abab"></path><path d="m29.114 37.257.3-.2L28 36l-3.86 1.1L32 43l1.052-.79-4.023-3.353a1 1 0 0 1 .085-1.6Z" fill="#5e63ff" class="fill-107c82"></path><path d="M40 60h-3a2 2 0 0 1-1.992-1.918C25.6 56.276 19 52 19 47v16h26v-4c-1.094 0-2.169-.035-3.228-.095A2 2 0 0 1 40 60Z" fill="#232599" class="fill-21abab"></path><path d="M35 52h7v2h-7zM26.068 22.871A19.853 19.853 0 0 0 23 24a9.045 9.045 0 0 0 5 6.08 9.156 9.156 0 0 0 8 0c.069-.033.134-.075.2-.109-5.306-.277-9.565-3.28-10.132-7.1Z" fill="#5e63ff" class="fill-107c82"></path><path d="M28 34h-2a3 3 0 0 0-3 3v20l3 1v5M23 57l-3 1v5M36 34h2a3 3 0 0 1 3 3v15M41 11v6h1a2 2 0 0 1 2 2v1.394a3 3 0 0 1-1.336 2.5L41 24a9.285 9.285 0 0 1-18 0l-1.665-1.109A3 3 0 0 1 20 20.394V19a2 2 0 0 1 2-2h1v-6" fill="none" stroke="#000000" stroke-linejoin="round" stroke-width="2px" class="stroke-000000"></path><ellipse cx="36.5" cy="18.5" rx=".5" ry="1.5" fill="none" stroke="#000000" stroke-linejoin="round" stroke-width="2px" class="stroke-000000"></ellipse><ellipse cx="27.5" cy="18.5" rx=".5" ry="1.5" fill="none" stroke="#000000" stroke-linejoin="round" stroke-width="2px" class="stroke-000000"></ellipse><path d="M23 24a22.282 22.282 0 0 1 9-2 22.282 22.282 0 0 1 9 2M20 19V9a8 8 0 0 1 8-8h8a8 8 0 0 1 8 8v10" fill="none" stroke="#000000" stroke-linejoin="round" stroke-width="2px" class="stroke-000000"></path><path d="M44 14s-2-4-12-4-12 4-12 4M28 36l4 3 4-3M36 30v6l14 4 4 15h-9v8M51 55v8M19 63v-8h-9l4-15 14-4v-6M13 55v8" fill="none" stroke="#000000" stroke-linejoin="round" stroke-width="2px" class="stroke-000000"></path><path d="m24 37 8 6 8-6M53 52h-8v3M35 52h7v6a2 2 0 0 1-2 2h-3a2 2 0 0 1-2-2ZM19 55v-3h-8" fill="none" stroke="#000000" stroke-linejoin="round" stroke-width="2px" class="stroke-000000"></path></g></svg>