<svg xmlns="http://www.w3.org/2000/svg" viewBox="0 0 2913.3 2625.5" xml:space="preserve" enable-background="new 0 0 2913.3 2625.5"><path d="M1006.2 2621.9h1136" fill="none" stroke="#1b1273" stroke-width="6" stroke-linecap="round" stroke-miterlimit="10" class="stroke-ffcf2d"></path><path d="M1573.8 1617v445c0 137 71 264.2 187.6 336.1l164.1 101.2M1484.9 1617v445c0 137-71 264.2-187.6 336.1l-164.1 101.2" fill="none" stroke="#66b0f0" stroke-width="6" stroke-linecap="round" stroke-linejoin="round" stroke-miterlimit="10" class="stroke-66b0f0"></path><path d="M1425.2 1617h200.1c17.7 0 32-14.3 32-32v-50.5h-264.1v50.5c0 17.7 14.3 32 32 32z" fill="#ffffff" stroke="#66b0f0" stroke-width="6" stroke-miterlimit="10" class="fill-ffffff stroke-66b0f0"></path><path d="M1932.9 2621.9c-40.6 0-73.5-32.9-73.5-73.5s32.9-73.5 73.5-73.5 73.5 32.9 73.5 73.5-32.9 73.5-73.5 73.5M1131.6 2621.9c-40.6 0-73.5-32.9-73.5-73.5s32.9-73.5 73.5-73.5 73.5 32.9 73.5 73.5-32.9 73.5-73.5 73.5" fill="#ffffff" stroke="#1b1273" stroke-width="6" stroke-miterlimit="10" class="fill-ffffff stroke-ffcf2d"></path><path d="M1131.6 2606.4c-32 0-58-26-58-58s26-58 58-58 58 26 58 58-26 58-58 58M1932.6 2606.4c-32 0-58-26-58-58s26-58 58-58 58 26 58 58-26 58-58 58" fill="#ffffff" stroke="#1b1273" stroke-width="6" stroke-miterlimit="10" class="fill-ffffff stroke-ffcf2d"></path><path d="M1421.3 2277s95.2-69.8 216.3 0" fill="none" stroke="#66b0f0" stroke-width="6" stroke-linecap="round" stroke-linejoin="round" stroke-miterlimit="10" class="stroke-66b0f0"></path><path d="m1571.5 1494.6-92 941.3H1763l233.1-847c42.9-138.2-49.4-278.8-193.1-279.1h-20c-106.4-.3-196.6 78.6-211.5 184.8z" fill="#31a1a9" class="fill-31a1a9"></path><path d="M1534.9 2435.9h149.4l-23.5 76.9c-29.5-29.4-70.6-50.6-115.5-53.3-4.2-.3-8.3-.4-12.4-.4l2-23.2z" fill="#e57281" class="fill-e57281"></path><path d="M1706.3 2621.3c7.8-72.4-68.6-156.2-161.1-161.9s-149.6 55.4-154.1 128c-.7 11-1.7 24.4.7 34.2l314.5-.3z" fill="#ffffff" stroke="#1300e8" stroke-width="6" stroke-miterlimit="10" class="fill-ffffff stroke-fe5244"></path><path d="m1652.1 2435.9 236.5-144-528.8-885.9c-66.9-106.1-236.7-138.9-343.8-73.7-123.5 75.2-147.7 244.3-50.3 351.1l686.4 752.5z" fill="#3fb1b5" class="fill-3fb1b5"></path><path d="m1653.1 2431.9 237.5-142-529.8-883.9c-66.9-106.1-236.7-138.9-343.8-73.7-123.5 75.2-147.7 244.3-50.3 351.1l686.4 748.5z" fill="none" stroke="#ffffff" stroke-width="6" stroke-miterlimit="10" class="stroke-ffffff"></path><path d="M1884.9 2285.6c-10.5-17.4-72 .3-137.4 39.7-65.4 39.3-109.7 86.7-99.2 104.1s71.8-1.7 137.2-41c65.3-39.3 109.8-85.3 99.4-102.8z" fill="#73325a" class="fill-73325a"></path><path d="m1870.5 2398.2-110.4 69.4-31.2-35-9.5-10.7-39.6-44.4c17-17.4 40.3-35.8 67.8-52.2 22.2-13.3 44.1-23.9 63.9-31.1l30.9 54.3 6.8 11.9 21.3 37.8z" fill="#e57281" class="fill-e57281"></path><path d="m2044.7 2473.5-275 148.3c-6.9-7.4-12.8-16.1-17.5-26-4-8.3-7.1-17-9.5-25.8-16.2-60.8 6.7-130.5 79.8-165.3 64.5-30.7 144.8-13.1 191.2 27.3 13.7 12.1 24.5 26.2 31 41.5z" fill="#ffffff" stroke="#1300e8" stroke-width="6" stroke-miterlimit="10" class="fill-ffffff stroke-fe5244"></path><path d="M1842.2 2348.4c-15.8 13.2-35.2 27-56.9 40-23.2 14-46 25.4-66.1 33.5l-41.6-44.4c17-17.4 42.3-35.8 69.8-52.2 22.2-13.3 44.1-24.9 63.9-32.1l30.9 55.2z" fill="#9a3b82" class="fill-9a3b82"></path><path d="M1878.8 2270.2c-10.5-17.4-76.9-.1-143.4 39.9s-108.7 86.9-98.2 104.3" fill="none" stroke="#ffffff" stroke-width="6" stroke-miterlimit="10" class="stroke-ffffff"></path><path d="M2799.4 1534.5c26.1 0 47.3-21.2 47.3-47.3v-181c0-26.1-21.2-47.3-47.3-47.3H169c-26.1 0-47.3 21.2-47.3 47.3v181c0 26.1 21.2 47.3 47.3 47.3h2630.4z" fill="#9a3b82" class="fill-9a3b82"></path><path d="M2798.6 1217.9H169.7c-26.1 0-47.3 21.2-47.3 47.3v181c0 26.1 21.2 47.3 47.3 47.3h2628.9c26.1 0 47.3-21.2 47.3-47.3v-181c0-26.1-21.2-47.3-47.3-47.3z" fill="#ffffff" stroke="#1b1273" stroke-width="6" stroke-miterlimit="10" class="fill-ffffff stroke-ffcf2d"></path><path d="M2661.7 1493.7v1128.6M366.8 1493.7v1128.6" fill="none" stroke="#1b1273" stroke-width="6" stroke-linecap="round" stroke-miterlimit="10" class="stroke-ffcf2d"></path><path d="m280.4 2341.4-4.2 2.7L123.6 2109l-45.9 3.5c-9.8.8-17.6-8.1-15.6-17.8 2.1-9.6 12.8-14.6 21.5-9.8l37.7 20.7-27.7-42.8-45.9 3.6c-9.8.8-17.6-8.2-15.5-17.8 2.1-9.6 12.8-14.6 21.5-9.8l37.7 20.6-27.7-42.8-45.9 3.6c-9.8.8-17.6-8.2-15.5-17.8s12.8-14.6 21.5-9.8l37.7 20.7-16.7-25.7-31-26.5c-7.5-6.4-6.7-18.2 1.5-23.6 8.3-5.4 19.4-1.3 22.2 8.2l11.5 39.1 17.2 26.5-3.6-44c-.8-9.8 8.1-17.6 17.7-15.6s14.6 12.8 9.9 21.4l-22.2 41 28.1 43.3-3.6-43.9c-.8-9.8 8.1-17.6 17.7-15.6s14.6 12.8 9.9 21.4l-22.2 41 28.1 43.3-3.6-43.9c-.8-9.8 8.1-17.7 17.7-15.6 9.6 2 14.6 12.8 9.9 21.4l-22.2 41 152.6 234.9z" fill="#9a3b82" class="fill-9a3b82"></path><path d="M536.8 2258.3C463.5 2406 364.5 2508.7 306 2501.6c-4.8-.6-9.3-1.9-13.5-4-55.6-27.6-36.4-179.5 43-339.3 34-68.5 73.5-127.2 111.9-169.9 51.3-56.9 100.6-85.2 132.4-69.4 55.6 27.6 36.3 179.5-43 339.3z" fill="#9a3b82" class="fill-9a3b82"></path><path d="M445 2141.6c-16.3 187.2-76.2 338.2-138.9 360-4.8-.6-9.3-1.9-13.5-4-55.6-27.6-36.4-179.5 43-339.3 34-68.5 73.5-127.2 111.9-169.9 2.8 47.1 2.2 99-2.5 153.2z" fill="#1b1273" class="fill-ffcf2d"></path><path d="m574.6 2351-38.7 13-25.8 18.1 43.8-5.2c9.8-1.2 17.9 7.4 16.3 17.1-1.7 9.7-12.2 15.1-21.1 10.7l-41.8-20.7-42.3 29.7 43.8-5.2c9.8-1.2 17.9 7.4 16.3 17.1-1.7 9.7-12.2 15.1-21.1 10.7l-41.8-20.7-42.2 29.7 43.8-5.2c9.8-1.2 17.9 7.4 16.2 17.1-1.7 9.7-12.2 15.1-21.1 10.7l-41.8-20.7-77.3 54.3h-8.7l83.3-58.5-5.2-45.7c-1.1-9.8 7.5-17.9 17.2-16.2s15 12.3 10.6 21.1l-19.3 38.5 41.7-29.3-5.2-45.7c-1.1-9.8 7.5-17.9 17.2-16.2s15 12.3 10.6 21.1l-19.2 38.4 41.7-29.3-5.2-45.7c-1.1-9.8 7.5-17.9 17.2-16.2s15 12.3 10.6 21.1l-19.3 38.5 25.1-17.6 25.3-32c6.1-7.7 18-7.4 23.6.7 5.9 8.1 2.2 19.4-7.2 22.5z" fill="#1b1273" class="fill-ffcf2d"></path><path d="M260.9 2493.8c-5 1.7-10.3 2.9-15.7 3.6-63 8.2-150-50.6-202.6-139.9-57.1-97-51.9-193.2 11.6-215 20.6-7.1 44.9-5.4 70.1 3.4 52.6 18.3 109.6 67.3 148.2 132.8 57 97.1 51.8 193.3-11.6 215.1z" fill="#ffffff" stroke="#1b1273" stroke-width="6" stroke-miterlimit="10" class="fill-ffffff stroke-ffcf2d"></path><path d="M260.9 2493.8c-5 1.7-10.3 2.9-15.7 3.6-58.2-26.4-108.8-138.2-119.5-274-2.1-26.8-2.5-52.8-1.4-77.5 52.6 18.3 109.6 67.3 148.2 132.8 57 97.1 51.8 193.3-11.6 215.1z" fill="#1b1273" class="fill-ffcf2d"></path><ellipse cx="286.5" cy="2130.7" rx="126" ry="374.9" fill="#ffffff" stroke="#1b1273" stroke-width="6" stroke-miterlimit="10" class="fill-ffffff stroke-ffcf2d"></ellipse><path d="M286.5 1755.7v749.9" fill="none" stroke="#1b1273" stroke-width="6" stroke-miterlimit="10" class="stroke-ffcf2d"></path><path d="m366.8 1845.6-80.3 107.6-68.1-134.8" fill="none" stroke="#1b1273" stroke-width="6" stroke-linecap="round" stroke-miterlimit="10" class="stroke-ffcf2d"></path><path d="m392.9 1936.8-107.2 147.4-96.4-186.5" fill="none" stroke="#1b1273" stroke-width="6" stroke-linecap="round" stroke-miterlimit="10" class="stroke-ffcf2d"></path><path d="m409.6 2042-124.9 172.2-114.1-220" fill="none" stroke="#1b1273" stroke-width="6" stroke-linecap="round" stroke-miterlimit="10" class="stroke-ffcf2d"></path><path d="m417.4 2182.4-132.1 184.8L160.8 2131" fill="none" stroke="#1b1273" stroke-width="6" stroke-linecap="round" stroke-miterlimit="10" class="stroke-ffcf2d"></path><path d="M473.3 2622.3H99.4c-28.8 0-52.2-23.4-52.2-52.2v-16.3c0-28.8 23.4-52.2 52.2-52.2h373.9c28.8 0 52.2 23.4 52.2 52.2v16.3c0 28.9-23.4 52.2-52.2 52.2z" fill="#ffffff" stroke="#66b0f0" stroke-width="6" stroke-miterlimit="10" class="fill-ffffff stroke-66b0f0"></path><path d="M2674.5 1323c0 14.9-11.9 27-26.5 27h-407.3c-14.7 0-26.5-12.1-26.5-27s11.9-27 26.5-27H2648c14.6 0 26.5 12.1 26.5 27z" fill="#1300e8" class="fill-fe5244"></path><path d="M2502.6 1041.8h-166.7v116h322c-20.4-68.8-83.6-116-155.3-116z" fill="#ffffff" stroke="#1b1273" stroke-width="6" stroke-miterlimit="10" class="fill-ffffff stroke-ffcf2d"></path><path d="M2365.9 1041.8v116l-69 .1v-116.1z" fill="#1b1273" stroke="#1b1273" stroke-width="6" stroke-miterlimit="10" class="fill-ffcf2d stroke-ffcf2d"></path><path d="m2913.2 1155.5-255.3 2.3s63.9-86.6 239.3-63.7c0 0-137.2-28.6-276.4 0" fill="none" stroke="#1b1273" stroke-width="6" stroke-miterlimit="10" class="stroke-ffcf2d"></path><path d="M2657.9 1157.8s111.9-61.5 248.3-31.7" fill="none" stroke="#1b1273" stroke-width="6" stroke-miterlimit="10" class="stroke-ffcf2d"></path><path d="M2686.4 1252.7c0 10.9 1.7 20.8 4.4 28.1h-122.5c-6.3 0-11.5-5.5-11.5-12.2v-31.7c0-6.8 5.1-12.2 11.5-12.2h122.5c-2.7 7.2-4.4 17.1-4.4 28z" fill="#1b1273" class="fill-ffcf2d"></path><path d="M2556.9 1236.9v31.7c0 6.8 5.5 12.2 12.2 12.2h131.6v2.3c0 5.6-4.5 10.1-10.1 10.1h-460.3c-5.6 0-10.1-4.5-10.1-10.1v-60.8c0-5.6 4.5-10.1 10.1-10.1h460.3c5.6 0 10.1 4.5 10.1 10.1v2.3h-131.6c-6.7.1-12.2 5.5-12.2 12.3z" fill="#ffffff" class="fill-ffffff"></path><path d="M2556.9 1236.9v31.7c0 6.8 5.5 12.2 12.2 12.2h131.6v2.3c0 5.6-4.5 10.1-10.1 10.1h-460.3c-5.6 0-10.1-4.5-10.1-10.1v-60.8c0-5.6 4.5-10.1 10.1-10.1h460.3c5.6 0 10.1 4.5 10.1 10.1v2.3h-131.6c-6.7.1-12.2 5.5-12.2 12.3z" fill="none" stroke="#1b1273" stroke-width="6" stroke-miterlimit="10" class="stroke-ffcf2d"></path><path d="M2385.4 1371.7c-4.8 4.5-7.8 12.7-7.8 19.6 0 13.7 12 27.8 26.8 27.8h368.8c0 6.4-5.2 11.7-11.7 11.7h-445.1c-11.9 0-22.7-4.5-30.5-11.7s-12.7-17.2-12.7-28.3c0-22.1 19.3-40 43.2-40h445.1c6.4 0 11.7 5.2 11.7 11.7v2.1h-368.8c-7.5-.1-14.2 2.7-19 7.1z" fill="#1b1273" class="fill-ffcf2d"></path><path d="M2746.5 1364.5v53.6h26.6v4.5h-370c-4.1 0-8.1-.8-11.7-2.3-3.9-1.6-7.5-3.9-10.4-6.9-5.7-5.7-9.2-13.5-9.2-22.1 0-17.3 14-31.3 31.3-31.3h370v4.5h-26.6z" fill="#1300e8" class="fill-fe5244"></path><path d="M2756.8 1364.5v53.6h-352.4c-14.8 0-26.8-12-26.8-26.8 0-7.4 3-14.1 7.8-19 4.8-4.8 11.5-7.8 18.9-7.8h352.5z" fill="#ffffff" class="fill-ffffff"></path><path d="M2756.8 1364.5v53.6" fill="none" stroke="#1300e8" stroke-width="5" stroke-miterlimit="10" class="stroke-fe5244"></path><path d="M2453.5 1402.5v44.7h-30.9v-39c0-9.3-7.5-16.9-16.9-16.9h-13.8v-5.7h44.7c9.4 0 16.9 7.6 16.9 16.9z" fill="#1300e8" class="fill-fe5244"></path><path d="M2774.6 1160.3h-525.4c-13.6 0-24.6 11-24.6 24.6.1 13.5 11 24.5 24.6 24.5h525.4c13.6 0 24.6-11 24.6-24.6-.1-13.5-11.1-24.5-24.6-24.5z" fill="#66b0f0" class="fill-66b0f0"></path><path d="M2655.4 1209.5h-5.3c.6 1.6 2.1 5.6 5.4 5.6 2 0 11.8-1.5 11.8-30.2 0-10.2-1.2-18-3.6-23.3-2.9-6.3-6.7-7-8.1-7-3.4 0-4.9 4.1-5.5 5.7h5.3c.2-.4.4-.6.5-.7 1.8.5 6.6 5.5 6.6 25.3s-4.8 24.7-6.6 25.3c-.2-.2-.4-.4-.5-.7zM2698.8 1209.5h-5.3c.6 1.6 2.1 5.6 5.4 5.6 2 0 11.8-1.5 11.8-30.2 0-10.2-1.2-18-3.6-23.3-2.9-6.3-6.7-7-8.1-7-3.4 0-4.9 4.1-5.5 5.7h5.3c.2-.4.4-.6.5-.7 1.8.5 6.6 5.5 6.6 25.3s-4.8 24.7-6.6 25.3c-.1-.2-.3-.4-.5-.7zM2742.3 1209.5h-5.3c.6 1.6 2.1 5.6 5.4 5.6 2.8 0 11.8-2.2 11.8-30.2 0-28.1-9-30.2-11.8-30.2-3.4 0-4.9 4.1-5.5 5.7h5.3c.2-.4.4-.6.5-.7 2 .5 6.6 5.7 6.6 25.3 0 12-1.7 18.2-3.2 21.4-1.2 2.6-2.5 3.7-3.4 3.9-.1-.3-.2-.5-.4-.8zM2524.9 1209.5h-5.3c.6 1.6 2.1 5.6 5.4 5.6 2 0 11.8-1.5 11.8-30.2 0-28.1-9-30.2-11.8-30.2-3.4 0-4.9 4.1-5.5 5.7h5.3c.2-.4.4-.6.5-.7 2 .5 6.6 5.7 6.6 25.3 0 19.8-4.8 24.7-6.6 25.3 0-.3-.2-.5-.4-.8zM2568.4 1209.5h-5.3c.6 1.6 2.1 5.6 5.4 5.6 1.9 0 5.4-.8 8.1-6.4 2.4-5.1 3.7-13.1 3.7-23.8 0-10.7-1.2-18.7-3.7-23.8-2.7-5.6-6.2-6.4-8.1-6.4-3.4 0-4.9 4.1-5.5 5.7h5.3c.2-.4.4-.6.5-.7 1.2.2 2.4 1.5 3.4 3.6 1.4 3 3.2 9.2 3.2 21.7 0 12.4-1.7 18.6-3.2 21.7-1 2.1-2.3 3.4-3.4 3.6-.1-.3-.2-.5-.4-.8zM2611.9 1209.5h-5.3c.6 1.6 2.1 5.6 5.4 5.6 2.8 0 11.8-2.2 11.8-30.2 0-28.8-9.8-30.2-11.8-30.2-3.4 0-4.9 4.1-5.5 5.7h5.3c.2-.4.4-.6.5-.7 1.8.5 6.6 5.5 6.6 25.3 0 19.6-4.6 24.8-6.6 25.3-.1-.3-.2-.5-.4-.8zM2394.5 1209.5h-5.3c.6 1.6 2.1 5.6 5.4 5.6 1.5 0 5.3-.7 8.1-7 2.4-5.2 3.6-13.1 3.6-23.3 0-9.4-1.3-17.3-3.6-22.7-2.1-4.8-5.1-7.6-8.2-7.6-3.4 0-4.9 4.1-5.5 5.7h5.3c.2-.3.3-.6.4-.7.6.3 2 1.4 3.4 4.6 1.5 3.3 3.2 9.6 3.2 20.6 0 19.8-4.8 24.7-6.6 25.3.1 0 0-.2-.2-.5zM2438 1209.5h-5.3c.6 1.6 2.1 5.6 5.4 5.6 1.5 0 5.3-.7 8.1-7 2.4-5.2 3.6-13.1 3.6-23.3 0-28.1-9-30.2-11.8-30.2-3.4 0-4.9 4.1-5.5 5.7h5.3c.2-.4.4-.6.5-.7 2 .5 6.6 5.7 6.6 25.3 0 19.8-4.8 24.7-6.6 25.3 0-.2-.1-.4-.3-.7zM2481.5 1209.5h-5.3c.6 1.6 2.1 5.6 5.4 5.6 2.8 0 11.8-2.2 11.8-30.2 0-10.7-1.2-18.7-3.7-23.8-2.7-5.6-6.2-6.4-8.1-6.4-3.4 0-4.9 4.1-5.5 5.7h5.3c.2-.4.4-.6.5-.7 1.2.2 2.4 1.5 3.4 3.6 1.4 3 3.2 9.2 3.2 21.7 0 19.6-4.6 24.8-6.6 25.3-.1-.3-.3-.5-.4-.8zM2264.1 1209.5h-5.3c.6 1.6 2.1 5.6 5.4 5.6 3.1 0 6-2.8 8.2-7.6 2.4-5.4 3.6-13.2 3.6-22.7 0-11.1-2-18.1-3.6-22-2.2-5.2-5.2-8.2-8.2-8.2-3.4 0-4.9 4.1-5.5 5.7h5.3c.2-.3.3-.5.4-.7.7.4 2.2 1.8 3.6 5.6 1.4 3.5 3 9.7 3 19.6 0 11.1-1.7 17.3-3.2 20.7-1.4 3.2-2.8 4.3-3.4 4.6 0-.1-.2-.3-.3-.6zM2307.5 1209.5h-5.3c.6 1.6 2.1 5.6 5.4 5.6 3.1 0 6-2.8 8.2-7.6 2.4-5.4 3.6-13.2 3.6-22.7 0-19.6-6.1-30.2-11.8-30.2-3.4 0-4.9 4.1-5.5 5.7h5.3c.2-.3.3-.5.4-.7.7.4 2.1 1.8 3.6 5.4 1.4 3.4 3 9.7 3 19.8 0 11.1-1.7 17.3-3.2 20.7-1.4 3.2-2.8 4.3-3.4 4.6 0-.1-.1-.3-.3-.6zM2351 1209.5h-5.3c.6 1.6 2.1 5.6 5.4 5.6 1.5 0 5.2-.7 8.2-7.4 2.4-5.4 3.6-13.1 3.6-22.8 0-9.4-1.3-17.3-3.6-22.7-2.1-4.8-5.1-7.6-8.2-7.6-3.4 0-4.9 4.1-5.5 5.7h5.3c.2-.3.3-.6.4-.7.6.3 2 1.4 3.4 4.6 1.5 3.3 3.2 9.6 3.2 20.6 0 11.3-1.7 17.5-3.2 20.8-1.4 3.1-2.8 4.2-3.4 4.4 0 0-.1-.2-.3-.5z" fill="#9a3b82" class="fill-9a3b82"></path><path d="M2589 457.4h-350.6c-20.3 0-36.7-16.4-36.7-36.7V70.1c0-20.3 16.4-36.7 36.7-36.7H2589c20.3 0 36.7 16.4 36.7 36.7v350.6c0 20.3-16.5 36.7-36.7 36.7z" fill="#1b1273" class="fill-ffcf2d"></path><path d="M2563.4 433.9h-357.5c-20.3 0-36.7-16.4-36.7-36.7V39.7c0-20.3 16.4-36.7 36.7-36.7h357.5c20.3 0 36.7 16.4 36.7 36.7v357.5c0 20.3-16.4 36.7-36.7 36.7z" fill="#ffffff" stroke="#1b1273" stroke-width="6" stroke-miterlimit="10" class="fill-ffffff stroke-ffcf2d"></path><circle cx="2384.7" cy="218.4" r="165" fill="none" stroke="#1b1273" stroke-width="6" stroke-miterlimit="10" class="stroke-ffcf2d"></circle><path d="m2291.9 147.6 92.8 70.8-22.8-69.9" fill="none" stroke="#1b1273" stroke-width="6" stroke-linecap="round" stroke-miterlimit="10" class="stroke-ffcf2d"></path><path d="M2090.9 1493.5h-282.7l-118.7-142.6h275.9z" fill="#1b1273" class="fill-ffcf2d"></path><path d="M2244 1500.9v88l-224 .9c-28.7.1-52-23.1-52-51.8v-27.3c0-18.2-6.7-35.7-18.7-49.2l-73.9-83h275.9l70.6 69.7c14.2 13.9 22.1 32.8 22.1 52.7z" fill="#ffffff" stroke="#66b0f0" stroke-width="6" stroke-miterlimit="10" class="fill-ffffff stroke-66b0f0"></path><path d="M2344.8 1557.9c-9.5 19-29.1 32-51.8 32h-276c22.6 0 42.2-13 51.8-32h276z" fill="#ffffff" stroke="#66b0f0" stroke-width="6" stroke-miterlimit="10" class="fill-ffffff stroke-66b0f0"></path><path d="M2173.7 1009.8 2005.3 714c-40.2-70.7-115.3-114.3-196.6-114.3H1178l22.1-47.7c-1.8 3.9-11.3 4.9-25.8 2.9-22.2-3-56-12.7-92-28.7-20.6-9.1-39.3-18.6-54.8-27.4-29.3-16.7-47-31.3-44.1-37.8l-322 528.1c-70.7 103.1 3.1 243.2 128.1 243.2 16.8 0 33.4-2.7 49.2-8 15.8-5.3 30.7-13.1 44.1-23.2l247.3-185.9c14.9-11.2 36.2-2.5 39.2 15.8l32.3 201.3h842.6c114.3.1 186-123.3 129.5-222.5zm-374.8 23.1 27-61.4c4.6-10.5 19.4-10.7 24.2-.3l29.3 61.8-80.5-.1z" fill="#1300e8" class="fill-fe5244"></path><path d="M1278.4 599.5c0-51.7 106.7-115.6 236.1-131.9 194.1-24.3 236.1 80.2 236.1 131.9" fill="none" stroke="#1300e8" stroke-width="6" stroke-miterlimit="10" class="stroke-fe5244"></path><path d="M1728.2 600.4c0 46.3-213.7 141.1-213.7 141.1s-213.7-94.8-213.7-141.1 101.6-99.9 218.7-114.2c168.5-20.6 208.7 67.8 208.7 114.2z" fill="#1300e8" class="fill-fe5244"></path><path d="M1728.2 600.4c0 46.3-213.7 141.1-213.7 141.1s-213.7-94.8-213.7-141.1v-.6h427.4v.6z" fill="#ffffff" class="fill-ffffff"></path><path d="M1750.5 599.4c0 51.1-236 167.3-236 167.3s-236-116.1-236-167.3" fill="none" stroke="#ffffff" stroke-width="6" stroke-miterlimit="10" class="stroke-ffffff"></path><path d="M1696.6 1230.1c13.2 0 23.9-43.7 23.9-97.5s-10.7-97.5-23.9-97.5" fill="none" stroke="#ffffff" stroke-width="5" stroke-linecap="round" stroke-miterlimit="10" class="stroke-ffffff"></path><path d="m1155 933.2 30.6 201.4M1504.5 790.4h20M1504.5 814.2h20M1504.5 837.9h20M1504.5 861.6h20M1504.5 885.3h20M1504.5 909.1h20M1504.5 910.2h20M1504.5 933.9h20M1504.5 957.6h20M1504.5 980.2h20M1504.5 1004h20M1504.5 1027.7h20M1504.5 1051.4h20M1504.5 1075.1h20M1504.5 1098.9h20M1504.5 1122.6h20M1504.5 1146.3h20M1504.5 1170h20M1504.5 1171.2h20M1504.5 1194.9h20M1504.5 1218.6h20" fill="none" stroke="#ffffff" stroke-width="5" stroke-linecap="round" stroke-miterlimit="10" class="stroke-ffffff"></path><path d="M1502.4 758.1v376.5" fill="none" stroke="#ffffff" stroke-width="5" stroke-miterlimit="10" class="stroke-ffffff"></path><path d="M1685 1034.9h240.5" fill="none" stroke="#ffffff" stroke-width="5" stroke-linecap="round" stroke-miterlimit="10" class="stroke-ffffff"></path><path d="M1015.8 1428.4h767.9l-72.2-195.3H1099z" fill="#ffffff" stroke="#66b0f0" stroke-width="6" stroke-miterlimit="10" class="fill-ffffff stroke-66b0f0"></path><path d="M1015.8 1428.4c0-27.6 73.2-77.5 192.1-84.3 127.3-7.2 194 72.8 192.1 84.3h-384.2z" fill="#66b0f0" class="fill-66b0f0"></path><path d="M1399.9 1428.4s-33.8-158-330.5-125.8l64.1-155.9s243-44.2 266.5 86.4l-.1 195.3z" fill="#ffffff" stroke="#66b0f0" stroke-width="6" stroke-linejoin="round" stroke-miterlimit="10" class="fill-ffffff stroke-66b0f0"></path><path d="M1779.2 1416.1c-17.7-24.5-85.9-50.1-187.5-55.9-120.8-6.9-187 50.5-191.8 66.1v-193.2s86.2-98.4 311.6 0l67.7 183z" fill="#ffffff" stroke="#66b0f0" stroke-width="6" stroke-linejoin="round" stroke-miterlimit="10" class="fill-ffffff stroke-66b0f0"></path><path d="M1675.5 1335.3c-25.2-6.4-55.7-11.2-90.5-13.2-17.3-1-33.4-.5-48.2 1.1-36.7 4.1-65.6 15.1-86.2 26.9M1666.6 1302c-24.1-5.7-52.8-10-85.2-11.9-17.3-1-33.4-.5-48.2 1.1-36.7 4.1-65.6 15.1-86.2 26.9M1658.4 1268.8c-23-5.1-49.7-8.9-79.7-10.7-17.3-1-33.4-.5-48.2 1.1-36.7 4.1-65.6 15.1-86.2 26.9" fill="none" stroke="#66b0f0" stroke-width="6" stroke-linecap="round" stroke-linejoin="round" stroke-miterlimit="10" class="stroke-66b0f0"></path><path d="M1783.8 1428.4h-383.9v-2.1c4.8-15.6 71-73 191.8-66.1 101.6 5.8 169.8 31.4 187.5 55.9l4.6 12.3z" fill="#66b0f0" class="fill-66b0f0"></path><path d="M1637 599.7s-71.6 37.3-171 22.3c-24.7-3.7-51.2-10.7-78.6-22.3V479.3l128.8-80.2 19.3 32.1L1637 599.7z" fill="#e57281" class="fill-e57281"></path><path d="M1523.3 408.6c7.7 14.3 9 31.3 3.4 46.6L1466 622c-24.7-3.7-51.2-10.7-78.6-22.3V479.3l129.4-82.7 6.5 12zM1512.2 354.7s15.1-134.3-38.6-146.6c-41-9.4-61.4 21.5-61.4 21.5s-22.2-32.4-56.6-17.2c-32.7 14.4-30.4 59.3-15.7 55.7s-14.2-32.4-45.1-11.1c-34.2 23.5 0 62.3 0 62.3s-25.3-12.2-37 12.7c-14.5 30.9 68.3 97.5 68.3 97.5l186.1-74.8z" fill="#9a3b82" class="fill-9a3b82"></path><path d="m1430.4 289.8-85.9 34.5c-20.7 8.3-30.8 32-22.5 52.6l37.5 93.5c13.8 34.5 53.4 51.3 87.8 37.5l35.7-14.3c34.5-13.8 51.3-53.4 37.5-87.8l-37.5-93.5c-8.3-20.7-32-30.8-52.6-22.5z" fill="#e57281" class="fill-e57281"></path><path d="m1537.8 398.8-17.3 7-18.8-46.8 17.3-7c10.3-4.1 21.9.9 26 11.1l3.9 9.7c4.2 10.2-.8 21.8-11.1 26z" fill="#e57281" class="fill-e57281"></path><path d="m1340.9 474 17.3-7-17.5-43.5-17.3 7c-10.3 4.1-15.2 15.8-11.1 26l2.6 6.4c4.1 10.2 15.7 15.2 26 11.1z" fill="#9a3b82" class="fill-9a3b82"></path><path d="M1516.7 383.8c-3.2-8.1.7-17.2 8.8-20.5M1432.6 340.5s20.3 7.6 46.1-4.6M1389.7 374.7s30.3-3.1 41.3 47.9M1475.7 439.2s-44.7-12-43.1 11.1" fill="none" stroke="#9a3b82" stroke-width="5" stroke-linecap="round" stroke-miterlimit="10" class="stroke-9a3b82"></path><ellipse transform="rotate(-19.507 1466.117 382.417)" cx="1466.1" cy="382.4" rx="4.1" ry="10.1" fill="#9a3b82" class="fill-9a3b82"></ellipse><ellipse transform="rotate(-19.507 1383.634 416.828)" cx="1383.6" cy="416.8" rx="4.1" ry="10.1" fill="#9a3b82" class="fill-9a3b82"></ellipse><circle cx="1468.5" cy="382.2" r="28.9" fill="none" stroke="#1b1273" stroke-width="5" stroke-linecap="round" stroke-miterlimit="10" class="stroke-ffcf2d"></circle><circle cx="1383.5" cy="415.2" r="28.9" fill="none" stroke="#1b1273" stroke-width="5" stroke-linecap="round" stroke-miterlimit="10" class="stroke-ffcf2d"></circle><path d="M1206.1 541c-1.7 3.9-11.3 4.9-25.8 2.9-22.2-3-56-12.7-92-28.7-20.6-9.2-39.3-18.6-54.7-27.4-29.3-16.7-47-31.3-44.1-37.8 2.9-6.4 25.4-3.3 57.2 7 17.1 5.5 36.8 13.1 57.6 22.4 35.6 15.8 66.5 31.2 84.7 43.1 12.4 8 18.9 14.5 17.1 18.5z" fill="#ffffff" stroke="#1300e8" stroke-width="6" stroke-miterlimit="10" class="fill-ffffff stroke-fe5244"></path><path d="m1375.8 338.2-27.2 105.1-24.5-61c-9.4-23.4 1.9-50.2 25-60l26.7 15.9z" fill="#9a3b82" class="fill-9a3b82"></path><path d="m1376.8 336.3-54 93.6c-6.2 10.8-17.8 17.5-30.3 17.5h-55.8c-8.2 0-15.5 5-18.6 12.5l-29 62.7-8.5 18.3c-24.5-3.3-58.6-13.9-91.2-28.4-12.2-5.4-24.1-11.1-35.1-16.8L1069 465l26.3-54.9c12.6-29.7 34.3-54.7 62-71.3l54.4-32.7c7.2-4.3 15.5-6.6 23.9-6.6h92.4c5.1 0 10.1 1.1 14.6 3.3l27.8 13.2c7.7 3.7 10.6 13 6.4 20.3z" fill="#e57281" class="fill-e57281"></path><path d="M1246.2 339.3h66c4.9 0 9.7 1.1 14.1 3.2l26.7 12.8c7.3 3.5 10.1 12.5 6.1 19.5M1229.8 367.7h66c4.9 0 9.7 1.1 14.1 3.2l26.7 12.8c7.3 3.5 10.1 12.5 6.1 19.5M1210.5 404.8h66c4.9 0 9.7 1.1 14.1 3.2l26.7 12.8c7.3 3.5 10.1 12.5 6.1 19.5" fill="none" stroke="#9a3b82" stroke-width="5" stroke-linecap="round" stroke-miterlimit="10" class="stroke-9a3b82"></path><path d="M1180.7 540.9c-24.5-3.3-58.6-13.9-91.2-28.4-12.2-5.4-24.1-11.1-35.1-16.8l16.6-33.9c11.1 4.2 22 9 34.2 14.5 35.6 15.8 66.7 32.3 84.9 44.2l-9.4 20.4z" fill="#9a3b82" class="fill-9a3b82"></path><path d="M1191 444.7h46.8" fill="none" stroke="#9a3b82" stroke-width="5" stroke-linecap="round" stroke-miterlimit="10" class="stroke-9a3b82"></path><ellipse cx="1684.6" cy="1132.6" rx="23.9" ry="99.7" fill="#ffffff" class="fill-ffffff"></ellipse><path d="M1708.5 1132.6c0 17.1-1 33.2-2.9 47.3-6.2 15.8-18.9 28.3-34.9 34.2-6.5 2.4-13.6 3.8-21 3.8H1559c-11.4 0-20.7 9.3-20.7 20.7v2.8c0 16.7-17.8 27.5-32.6 19.7l-42.6-22.3c-7.6-4-12.4-11.9-12.4-20.5V1185c0-12.5 5.9-24.2 15.8-31.7l65-48.9c11-8.3 24.4-12.7 38.1-12.7h136.7c1.5 12.5 2.2 26.3 2.2 40.9z" fill="#e57281" class="fill-e57281"></path><path d="m1547.9 1123.9-59.7 44.9c-9.1 6.9-14.5 17.7-14.5 29.1v30.6c0 7.9 4.4 15.2 11.4 18.8" fill="none" stroke="#9a3b82" stroke-width="5" stroke-linecap="round" stroke-miterlimit="10" class="stroke-9a3b82"></path><path d="m1578.3 1137.3-59.7 44.9c-9.1 6.9-14.5 17.7-14.5 29.1v30.6c0 7.9 4.4 15.2 11.4 18.8" fill="none" stroke="#9a3b82" stroke-width="5" stroke-linecap="round" stroke-miterlimit="10" class="stroke-9a3b82"></path><path d="M1708.5 1132.6c0 17.1-1 33.2-2.9 47.3-6.2 15.8-18.9 28.3-34.9 34.2-6.1-18.1-10.1-47.8-10.1-81.5 0-14.6.8-28.4 2.1-40.9h43.7c1.4 12.5 2.1 26.3 2.1 40.9z" fill="#9a3b82" class="fill-9a3b82"></path><ellipse cx="1882.2" cy="1268.8" rx="108.4" ry="9.1" fill="#1b1273" class="fill-ffcf2d"></ellipse><path d="M1972.4 1275.7h-44.8c-41.6 0-75.2-33.7-75.2-75.2v-63.9h195.3v63.8c0 41.6-33.7 75.3-75.3 75.3z" fill="#ffffff" stroke="#1b1273" stroke-width="6" stroke-miterlimit="10" class="fill-ffffff stroke-ffcf2d"></path><path d="M2075 1191.3h-27.4v-48.7h27.4c11.7 0 21.3 9.5 21.3 21.3v6.2c0 11.7-9.6 21.2-21.3 21.2z" fill="none" stroke="#1b1273" stroke-width="6" stroke-miterlimit="10" class="stroke-ffcf2d"></path><ellipse cx="1950" cy="1135.9" rx="98.5" ry="19.7" fill="#3fb1b5" stroke="#ffffff" stroke-width="5" stroke-miterlimit="10" class="fill-3fb1b5 stroke-ffffff"></ellipse><path d="M1852.5 1151.9c0 10.9 43.7 19.7 97.5 19.7s97.5-8.8 97.5-19.7M1852.5 1172.8c0 10.9 43.7 19.7 97.5 19.7s97.5-8.8 97.5-19.7M1852.5 1193.7c0 10.9 43.7 19.7 97.5 19.7s97.5-8.8 97.5-19.7M1854 1214.6c0 10.9 43 19.7 96 19.7s96-8.8 96-19.7M1861.5 1235.5c0 10.9 39.6 19.7 88.5 19.7s88.5-8.8 88.5-19.7" fill="none" stroke="#1b1273" stroke-width="6" stroke-miterlimit="10" class="stroke-ffcf2d"></path><path d="M1946.1 1100.9c-9.6-6.6-39.5-69.5-2.5-95.2 28.4-19.8 33.9 31.5 20.8 27.2-22.8-7.5-36.7-107.9 22.8-101.7 26.2 2.7 23.3 40 0 41" fill="none" stroke="#ffffff" stroke-width="5" stroke-linecap="round" stroke-miterlimit="10" class="stroke-ffffff"></path><path d="M783.1 1394.7H291.6c-13.2 0-25-8-29.9-20.2l-134.5-332.4c-6.4-15.9 5.3-33.3 22.4-33.3h491.5c13.2 0 25 8 29.9 20.2l134.5 332.4c6.5 15.9-5.2 33.3-22.4 33.3z" fill="#ffffff" stroke="#1b1273" stroke-width="6" stroke-miterlimit="10" class="fill-ffffff stroke-ffcf2d"></path><path d="M760.3 1397.1H291.4c-12.5 0-23.8-7.6-28.5-19.2l-128.3-317.1c-6.1-15.2 5-31.7 21.4-31.7h468.9c12.5 0 23.8 7.6 28.5 19.2l128.3 317.1c6.1 15.2-5.1 31.7-21.4 31.7z" fill="#1b1273" class="fill-ffcf2d"></path><path d="M472.4 1252.9c-13.8 0-26.8-5.4-36.6-15.2-8-8-12.4-18.6-12.4-29.8 0-11.3 4.4-21.9 12.4-29.8 6.5-6.5 15.2-10.1 24.4-10.1s17.9 3.6 24.4 10.1c11.1 11.1 11.1 29.1 0 40.2-9.2 9.2-24.1 9.2-33.3 0-1.6-1.6-1.6-4.1 0-5.7s4.1-1.6 5.7 0c6.1 6.1 15.9 6.1 22 0 8-8 8-20.9 0-28.9-5-5-11.7-7.8-18.8-7.8-7.1 0-13.8 2.8-18.8 7.8-6.5 6.5-10 15-10 24.2 0 9.1 3.6 17.7 10 24.2 8.3 8.3 19.2 12.8 30.9 12.8s22.7-4.5 30.9-12.8c1.6-1.6 4.1-1.6 5.7 0s1.6 4.1 0 5.7c-9.7 9.7-22.7 15.1-36.5 15.1z" fill="#ffffff" class="fill-ffffff"></path><path d="M959 1429.9H292.2c-7.7 0-13.9-6.2-13.9-13.9v-6.7c0-7.7 6.2-13.9 13.9-13.9H959c7.7 0 13.9 6.2 13.9 13.9v6.7c-.1 7.7-6.3 13.9-13.9 13.9z" fill="#ffffff" stroke="#1b1273" stroke-width="6" stroke-miterlimit="10" class="fill-ffffff stroke-ffcf2d"></path></svg>