<svg viewBox="0 0 1000 1000" xmlns="http://www.w3.org/2000/svg"><path d="M107 403.76a57 57 0 0 1-19.15 38.71c-6 5.28-13.2 8.69-20.61 11.57-8.06 3.14-16.64 5.88-23.73 11-7.27 5.23-13.94 13.45-12.79 23l4.47-3.41a5.74 5.74 0 0 0-5.64 1.58c-1.18 1.27-1.56 3.8 0 5 2.34 1.83 5.3 3.07 8.18 1.61 2.41-1.22 4-4.2 3-6.85a3.61 3.61 0 0 0-5.22-2.12 27.87 27.87 0 0 0-14 18.44 3.59 3.59 0 0 0 5.94 3.46 33.78 33.78 0 0 0 8.24-11.18l-6.5-2.74a36.57 36.57 0 0 0-2.31 12.15c-.07 3.41 5 5 6.63 1.8A68.32 68.32 0 0 0 39 490.31l-7-.94a43.12 43.12 0 0 0 1.13 12.86 3.62 3.62 0 0 0 3.43 2.61 3.74 3.74 0 0 0 3.43-2.61 18.81 18.81 0 0 0 .41-12.75 3.63 3.63 0 0 0-4.31-2.48c-2 .56-2.76 2.46-2.48 4.37a23.82 23.82 0 0 0 4.45 10.78 3.61 3.61 0 0 0 3.54 1.69 3.5 3.5 0 0 0 2.95-2.54 20.59 20.59 0 0 0-1.68-13.61 3.58 3.58 0 0 0-4.87-1.27c-1.83 1.07-2 3.09-1.27 4.86a24.48 24.48 0 0 0 6.08 8.51c3 2.69 7.57-.69 5.58-4.3a35.39 35.39 0 0 0-8-9.89 3.77 3.77 0 0 0-5.19 0c-1.28 1.28-1.55 3.94 0 5.19a26.88 26.88 0 0 1 7.05 8.28l5.58-4.3a19.28 19.28 0 0 1-5-7.08l-6.13 3.59a12.93 12.93 0 0 1 1 8.13l6.49-.85a18.84 18.84 0 0 1-3.73-9.08l-6.85 1.89a12.13 12.13 0 0 1-.42 9h6.86a36.12 36.12 0 0 1-.88-11c.26-4-6.12-4.85-7-.95a60.68 60.68 0 0 1-4.76 13.73l6.62 1.79a30.68 30.68 0 0 1 2.05-10.26 3.52 3.52 0 0 0-2.05-4.19c-1.5-.6-3.7-.18-4.44 1.45a28 28 0 0 1-7.12 9.74l5.94 3.46a20.71 20.71 0 0 1 10.7-14.2l-5.22-2.12c.34.89 0-.56.21-.94s.45-.31.68-.52.26.1 0-.1c-.05 0-.69-.47-.92-.64l.72 5.55c-.23.25-1.16.25-1.24.23 2 .44 4.77-1 4.47-3.4a12.36 12.36 0 0 1 .19-4.92 16 16 0 0 1 .79-2.43c-.15.35.35-.7.42-.84.23-.44.48-.88.73-1.31a28.62 28.62 0 0 1 7.25-7.63c6.88-4.95 15.07-7.78 22.82-11s15.24-7.1 21.59-12.83a60.93 60.93 0 0 0 13.7-18.12 58.58 58.58 0 0 0 6.09-25.12c0-2.83-4.19-2.78-4.36 0z" fill="#6229ff" class="fill-18c4ff"></path><path d="M191.25 337.22a636.55 636.55 0 0 0 4.21 99.72c.37 3 .82 6.17 2.74 8.51 2.51 3.07 6.82 3.87 10.77 4.27 31 3.11 62.8-6.73 87.57-25.6s42.49-46.41 50.89-76.4a10.12 10.12 0 0 0 .44-5.56c-.77-2.58-3.33-4.12-5.69-5.41l-79.46-43.59-13.87-7.61" fill="#291b4f" class="fill-000000"></path><path d="M190.57 337.22a620.36 620.36 0 0 0 3.22 94.32c.67 6 .56 13.8 6.69 17.1a22.42 22.42 0 0 0 8.52 2.16c3.34.35 6.71.54 10.07.59a123.77 123.77 0 0 0 39.19-5.88 133 133 0 0 0 63.33-44.16 149.64 149.64 0 0 0 19.57-32.3 154.83 154.83 0 0 0 6.69-17.91c.91-3 2.34-6.55 1.22-9.68-1-2.83-3.69-4.49-6.19-5.87q-41.6-23-83.29-45.84c-3.34-1.83-6.65-3.63-10.09-5.26a1.23 1.23 0 0 0-1.24 2.13c6.57 4.11 13.5 7.66 20.3 11.38l20.1 11 40.2 22 10.05 5.49c2.47 1.35 6.08 2.71 7.43 5.37a6.64 6.64 0 0 1 .06 4.69c-.4 1.57-.87 3.13-1.35 4.68-.91 2.93-1.9 5.82-3 8.69a148.24 148.24 0 0 1-17.3 32.83c-14.43 20.6-34.37 37.25-57.75 46.83a125.34 125.34 0 0 1-37.73 9.21 114.4 114.4 0 0 1-19.5-.08c-2.9-.26-6-.6-8.57-2.09-2.84-1.64-3.91-4.51-4.44-7.59-1.25-7.33-1.78-14.86-2.45-22.26s-1.25-15.12-1.68-22.69q-1.28-22.71-1-45.49c.05-3.79.14-7.58.25-11.37 0-.89-1.34-.88-1.37 0zM726.75 269.48c31.58-4.43 63.64-2.73 95.5-1.52 6.9.26 13.86.5 20.65-.74 6.16-1.12 12-3.43 17.86-5.73l45.51-17.93c4.93-1.95 10.09-3.93 15.37-3.5 3.28.26 6.85 1.38 9.64-.34 1-.63 1.84-1.6 3-1.89 2-.51 3.8 1.14 5 2.73a39.42 39.42 0 0 1 7.86 17.84 3.74 3.74 0 0 1-.3 2.8c-1.57 2.26-5.45-.5-7.82.9-1.08.65-1.5 2-2 3.16-2.22 5.67-7.24 9.72-12.19 13.27C909.21 289.81 892.1 298.94 875 308a135.28 135.28 0 0 1-18.48 8.6c-10.27 3.56-21.21 4.6-32 5.61l-72.09 6.75" fill="#291b4f" class="fill-000000"></path><path d="M726.75 270.16c30.84-4.13 62.07-2.6 93-1.37 7.46.29 15 .7 22.4-.5s14.26-4.08 21.14-6.79c14.69-5.77 29.36-11.59 44.07-17.33a40.9 40.9 0 0 1 11-3.09c3.33-.29 6.56.82 9.87.57a7.84 7.84 0 0 0 4.12-1.46c1.35-1 2.46-2 4.14-.89a12.31 12.31 0 0 1 3.15 3.51 39.65 39.65 0 0 1 2.85 4.78 38.81 38.81 0 0 1 3.29 9.41c.23 1.1 1 3.53-.47 4-1 .32-2.43-.2-3.47-.32a5.41 5.41 0 0 0-3.13.36 5.63 5.63 0 0 0-2.46 3.28 22.29 22.29 0 0 1-5 7.59 58 58 0 0 1-7.66 6.22q-4.61 3.27-9.37 6.32c-6.21 4-12.58 7.74-19 11.35s-13 7.08-19.5 10.53-13.09 7-20.12 9.36a106.3 106.3 0 0 1-21.79 4.38c-7.55.85-15.14 1.46-22.71 2.16l-47.24 4.34c-3.81.35-7.62.69-11.43 1.09-1.6.17-1.65 2.68 0 2.54 16.26-1.31 32.49-3.05 48.72-4.6l23.85-2.26a193.35 193.35 0 0 0 22.48-3.06c14.75-3.19 27.91-11.09 41-18.21s26.52-14.72 38.59-23.77a43.59 43.59 0 0 0 7.07-6.29 23.48 23.48 0 0 0 2.69-3.72c.76-1.32 1.19-2.75 1.87-4.11 1.36-2.71 4.66-.62 7-1.05 3.12-.58 2.78-3.9 2.3-6.28a40.36 40.36 0 0 0-3.23-9.56 32.61 32.61 0 0 0-5.46-8.35 6.64 6.64 0 0 0-3.65-2.18 5 5 0 0 0-3.92 1.38 6.51 6.51 0 0 1-4.25 1.51 52.21 52.21 0 0 1-5.41-.56c-7.53-.72-14.81 3-21.62 5.71l-22.75 9c-7.47 3-14.91 6-22.44 8.83a82 82 0 0 1-10.75 3.33 59.84 59.84 0 0 1-11.63 1.27c-7.94.18-15.92-.38-23.85-.68s-15.71-.56-23.57-.7a398.53 398.53 0 0 0-47.5 1.59q-5.7.58-11.37 1.41c-.75.1-.58 1.43.18 1.33z" fill="#291b4f" class="fill-000000"></path><g fill="#6229ff" class="fill-18c4ff"><path d="M670.58 388.89c-17 16.92-23.23 42.28-22 66.2s9 47 16.74 69.63l21 61.68a11.6 11.6 0 0 1 .85 4c0 2.26-1.4 4.26-2.69 6.11C650 645.8 615.38 695.25 575.19 740c-2.07 2.3-4.24 4.76-4.81 7.81-.62 3.31.77 6.64 2.33 9.63A77.64 77.64 0 0 0 613 793.59c3.17 1.23 7.33 2 9.48-.62 1.26-1.55 1.28-3.72 1.25-5.71l-.6-36.35L691 696.59c17.13-13.72 34.54-27.71 46.88-45.85 17.17-25.23 23.18-56.82 21.76-87.3s-9.8-60.21-19.38-89.18c-6.19-18.76-13-38.35-9.66-57.82"></path><path d="M670.08 388.39c-18.91 18.84-24.54 47-22.08 72.79 1.49 15.71 5.57 31 10.35 46 5 15.67 10.49 31.19 15.79 46.76l8 23.61 2.07 6.09c.65 1.93 1.66 4 1.82 6.07.31 3.73-3.38 7.45-5.37 10.29Q667 619.5 653.2 638.9c-18.57 25.92-37.64 51.5-58 76.06q-7.53 9.07-15.3 18c-2.57 2.93-5.33 5.75-7.74 8.82-2 2.5-3.34 5.34-3.09 8.59s1.88 6.5 3.5 9.42a74.82 74.82 0 0 0 5.26 8.18 79.26 79.26 0 0 0 13.33 14.12 78.42 78.42 0 0 0 16.07 10.32c4.18 2 11 5.69 15.35 2.15 2.42-2 2.35-5.23 2.3-8.07q-.12-6.26-.25-12.52t-.22-12.52l-.1-6a19.5 19.5 0 0 1 0-3.24c.18-1.18 1.26-1.72 2.17-2.45 25.62-20.52 51.49-40.75 76.79-61.64 11.15-9.2 22-18.94 30.9-30.36a120.34 120.34 0 0 0 19.46-36.84c9.17-28.07 8.87-58.21 3.77-87a382.52 382.52 0 0 0-11.75-46.64c-4.76-15.33-10.81-30.48-13.51-46.37a72.46 72.46 0 0 1-.37-24.05c.23-1.41-1.92-2-2.16-.6-2.53 15.29.86 30.54 5.37 45.13 4.64 15 9.87 29.8 14 45 7.86 29.12 12.6 59.64 8.26 89.75a135.51 135.51 0 0 1-12 40.09c-6.26 12.85-15 24.11-25.09 34.15s-21.65 19.13-32.92 28.14Q668 713.71 648.8 729l-19.18 15.34-4.72 3.77c-1.42 1.13-2.82 1.69-2.81 3.58 0 4 .12 8.08.19 12.12.13 8.09.43 16.22.33 24.32 0 1.76-.21 3.78-1.86 4.8-1.38.86-3.25.64-4.76.31a38.66 38.66 0 0 1-8.69-3.5 76.87 76.87 0 0 1-29-25.35c-3.74-5.49-9.42-13.33-5.18-19.87 2.07-3.19 5-5.94 7.51-8.79s5-5.72 7.49-8.62c20.06-23.4 38.76-47.92 56.85-72.86q13.67-18.81 27-37.88 6.68-9.51 13.32-19c1.81-2.61 3.5-5.3 2.91-8.61-.67-3.72-2.39-7.43-3.62-11q-7.95-23.22-15.88-46.44c-5.07-14.84-10.34-29.66-14.13-44.89-6.67-26.79-8.33-56.61 5.28-81.63a68.91 68.91 0 0 1 11.32-15.39.71.71 0 0 0-1-1z"></path><path d="M762.31 402.08C824 511.52 844.23 638.56 874 760.62a17.81 17.81 0 0 0 2.61 6.63c5.38 7.17 20.35 5.74 21 14.68.25 3.57-2.43 6.64-5.12 9a61.23 61.23 0 0 1-49 14.2c-3.39-.53-6.9-1.43-9.4-3.77-3.72-3.47-4.25-9.06-4.89-14.1-5.55-43.56-35.62-79.85-49.17-121.62a165.84 165.84 0 0 1-7.5-37.41c-.7-8.45-.79-17.16-4-25-1.87-4.52-4.72-8.56-7.46-12.62a337.34 337.34 0 0 1-55.88-215.85"></path><path d="M761.72 402.43A656.88 656.88 0 0 1 801.24 489c11 29.54 20.25 59.71 28.44 90.14 8.28 30.77 15.54 61.8 22.64 92.85 3.53 15.48 7 31 10.58 46.44q2.67 11.6 5.39 23.16 1.37 5.77 2.75 11.54a105.81 105.81 0 0 0 2.86 11.28c1.84 5.1 6 7.43 10.86 9.24 3.75 1.41 10 2.6 11.43 7 1.24 3.83-1.89 7.2-4.53 9.52a55.91 55.91 0 0 1-9 6.45 61.06 61.06 0 0 1-20.47 7.31c-7.12 1.18-15.08 1.35-22.07-.64a11.39 11.39 0 0 1-8.12-7.49c-1.11-3.18-1.35-6.59-1.8-9.91-2-14.35-6.66-28.13-12.41-41.37-11.92-27.41-28.5-52.81-37.34-81.53a163.85 163.85 0 0 1-5.56-24.57c-1.2-8.09-1.29-16.29-2.42-24.38s-4.16-14.74-8.66-21.45c-4.27-6.38-8.46-12.8-12.35-19.41a337.62 337.62 0 0 1-46.27-175.95q.2-11.25 1.16-22.47c.13-1.48-2.18-1.47-2.31 0a335.8 335.8 0 0 0 5 92.84 339.88 339.88 0 0 0 30.12 88q5.31 10.54 11.38 20.68c4 6.74 8.47 13.17 12.72 19.77a43.29 43.29 0 0 1 5.49 11.5 66.2 66.2 0 0 1 2 12.59c.68 8.23 1.29 16.4 2.78 24.54 5.68 31 21.42 58 35.15 85.86 6.67 13.55 12.8 27.46 16.54 42.13.92 3.65 1.7 7.33 2.3 11.05.57 3.51.8 7.1 1.62 10.57a15.46 15.46 0 0 0 4.12 7.89c2.52 2.35 5.9 3.38 9.23 4a62.25 62.25 0 0 0 41.24-7.58 60.72 60.72 0 0 0 8.72-6.12c2.5-2.11 5.1-4.63 6-7.9 1.25-4.73-1.78-8.32-5.82-10.25-4.46-2.13-9.87-2.9-13.7-6.19-2.9-2.5-3.5-6.44-4.36-10q-1.41-5.76-2.78-11.53-5.62-23.7-11-47.46c-7.22-31.71-14.34-63.45-22.32-95-7.93-31.36-16.69-62.53-27.17-93.14a672.08 672.08 0 0 0-37.11-88.47q-5.4-10.53-11.29-20.78a.69.69 0 0 0-1.19.7z"></path></g><path d="M668.5 291a179.18 179.18 0 0 1 84.34-23.24c7.81-.16 16 .31 22.64 4.5 10 6.34 13.36 19.32 13.7 31.12.57 20-5.23 39.69-12.64 58.29-1.42 3.55-2.9 7.13-3.37 10.93-1 8.56 3.25 17.07 2.41 25.66-.69 7.06-4.9 13.47-10.46 17.89s-12.35 7-19.25 8.67c-28 6.7-58.39-1.9-81.45-19.15-7.5-5.61-14.87-13.22-14.91-22.58 0-7.68 4.88-14.38 7.4-21.63 3.63-10.47 1-14.65.41-25.72S645.55 303.16 668.5 291" fill="#291b4f" class="fill-000000"></path><path d="M668.86 291.62A179 179 0 0 1 746.6 269c8.42-.46 17.78-1 25.63 2.68 14.81 6.92 16.56 26 15.72 40.31a129.2 129.2 0 0 1-5 27.78c-1.3 4.57-2.79 9.09-4.42 13.55s-3.45 8.62-5 13a28.89 28.89 0 0 0-1.39 13.36c.57 4.45 1.8 8.8 2.23 13.27a23.21 23.21 0 0 1-2 12.43 28.64 28.64 0 0 1-7.48 9.48c-6.61 5.53-15.23 8.23-23.59 9.76a86.5 86.5 0 0 1-24.73.83 104.7 104.7 0 0 1-46.56-17.2c-6.62-4.39-13.53-9.57-17.24-16.79a18.31 18.31 0 0 1-1.77-11.75c.78-4.18 2.71-8 4.48-11.83a46.85 46.85 0 0 0 4.01-11.88 34.47 34.47 0 0 0 0-10c-.72-5.71-1-11.45-2.2-17.08-2.15-10.35-4.44-21.87 3.3-30.59a30.3 30.3 0 0 1 8.42-6.4c1.1-.58.12-2.25-1-1.66-6 3.2-11.11 7.83-13.46 14.33-1.89 5.27-1.7 11-.88 16.43.71 4.71 2.15 9.34 2.55 14.09.32 3.75.69 7.47 1.13 11.21a31.85 31.85 0 0 1-.31 10.8c-1.93 8.51-7.95 15.78-8.62 24.61-.64 8.35 4.53 15.58 10.43 20.94a96.48 96.48 0 0 0 21.27 14.19 108.23 108.23 0 0 0 24.25 8.9c16.48 3.84 34.87 3.84 50.74-2.55 7.85-3.17 15.1-8.37 19-16.07a24.75 24.75 0 0 0 2.7-12.12c-.17-4.67-1.4-9.2-2.15-13.79a28.31 28.31 0 0 1 1.07-14.23c1.59-4.61 3.56-9.08 5.2-13.67a167.54 167.54 0 0 0 7.71-28.32c1.53-8.95 2.29-18.26 1.21-27.32-.87-7.3-3-14.69-7.6-20.55-5.2-6.62-13-9.43-21.18-10.1-9.12-.74-18.53.14-27.58 1.34A180.19 180.19 0 0 0 680.41 284q-6.25 3-12.26 6.4a.71.71 0 0 0 .71 1.22z" fill="#291b4f" class="fill-000000"></path><path d="M677.36 221.85c-4.23 7.44-.41 17.92-5.65 24.69a5.92 5.92 0 0 0-1.26 2c-.42 1.57.75 2.8 2.27 3.65 2.41 1.34 2.16 4.77 2.14 7.13 0 4.47 0 9.28 1.77 13.46a9 9 0 0 0 8.14 5.48c3.72.24 7.55-1.6 11.21-.59 2.89.79 4.28 3.49 5.14 6.15s1.22 4 2 6.68a5.1 5.1 0 0 0 1.43 2.66c1 .82 2.46.74 3.75.56a37.21 37.21 0 0 0 24.58-14.85 3.76 3.76 0 0 0 1-2.42 4.31 4.31 0 0 0-1.33-2.28 50.56 50.56 0 0 1-10.8-21.64c-3-12.48 2.7-28.82-6.91-39.29a16.76 16.76 0 0 0-8.61-4.95 28.91 28.91 0 0 0-16.72 1.55c-4.67 1.85-10.71 5.45-11.48 10.93" fill="#ffffff" class="fill-ffffff"></path><path d="M676.75 221.49c-1.91 3.4-2.32 7.28-2.56 11.1s-.26 8.13-2.15 11.67c-.87 1.62-2.68 3-2.67 4.94s1.46 2.94 2.84 3.86c1.55 1 1.64 3 1.65 4.66 0 2.15-.07 4.3 0 6.45.2 4.05.8 8.81 3.66 11.92 2.65 2.9 6.65 3.53 10.38 3 2.41-.33 4.92-1.07 7.36-.55a6.18 6.18 0 0 1 4.21 3.81 44.67 44.67 0 0 1 2 6c.54 1.84.89 4.24 2.42 5.56s3.82 1 5.68.66a35.55 35.55 0 0 0 6-1.57 38.69 38.69 0 0 0 10.79-5.9 37.79 37.79 0 0 0 4.58-4.18 17.94 17.94 0 0 0 3.68-4.95c.81-2-.52-3.48-1.77-4.94a43.49 43.49 0 0 1-4.12-5.77 51.58 51.58 0 0 1-5.38-12.52 44.76 44.76 0 0 1-1.58-11.74c-.12-7.68.76-15.8-1.94-23.16a20.32 20.32 0 0 0-6.61-9.27 20.55 20.55 0 0 0-12.17-3.78 31.79 31.79 0 0 0-13 2.72c-3.3 1.43-6.59 3.41-8.74 6.36a10.58 10.58 0 0 0-2 4.74c-.13.93 1.26 1.36 1.43.4.66-3.57 3.5-6.12 6.45-7.95a30.25 30.25 0 0 1 10.86-4c4.31-.72 9.12-.57 13.14 1.29a16.91 16.91 0 0 1 8 8.17c3.18 6.58 2.61 14.32 2.55 21.42a64.77 64.77 0 0 0 .55 10.6 48.21 48.21 0 0 0 3.41 11.37 48.92 48.92 0 0 0 6.3 10.67c.6.79 1.24 1.55 1.89 2.3.88 1 1.33 1.77.54 3a27.26 27.26 0 0 1-3.82 4.56c-5.45 5.47-13.06 9.57-20.82 10.34-1.16.11-2.34.08-3-1a12.61 12.61 0 0 1-1.06-3.06c-.56-1.9-1.09-3.81-1.75-5.67-1.19-3.4-3.3-6.18-7.08-6.63-4.15-.49-8.21 1.65-12.33.4s-5.49-4.94-6.16-8.75-.16-7.85-.51-11.78a6.83 6.83 0 0 0-1.48-4.07c-1-1.14-3.83-1.91-2.75-3.92.44-.83 1.15-1.51 1.64-2.33a13.53 13.53 0 0 0 1.09-2.27 20.84 20.84 0 0 0 1.13-5.06c.43-3.72.2-7.49.8-11.19a16.72 16.72 0 0 1 1.7-5.26c.43-.8-.77-1.51-1.22-.72z" fill="#291b4f" class="fill-000000"></path><path d="m681.74 240.79-.11.14.05-.06-.15.12h.09l-.19.08h.07a1.28 1.28 0 0 0 .27-.11l-.2.09h.14-.23.15-.24a.33.33 0 0 1 .15 0l-.21-.09.14.08-.18-.14a.81.81 0 0 1 .16.16l-.15-.19a1.12 1.12 0 0 1 .16.28l-.1-.22a.61.61 0 0 1 .07.24v-.26a1.77 1.77 0 0 1 0 .23v-.26a1.16 1.16 0 0 1 0 .18l.09-.23a.5.5 0 0 1-.08.14l.16-.2-.09.09.2-.15-.09.05.23-.1h-.1.26-.14.26a.5.5 0 0 1-.13 0l.24.1-.12-.07.21.16-.08-.08.15.21a2.43 2.43 0 0 0-.24-.32l.15.2v-.06l.1.23a1.3 1.3 0 0 0-.24-.41l-.19-.14a.72.72 0 0 0-.34-.11.53.53 0 0 0-.25 0 .46.46 0 0 0-.23.06.55.55 0 0 0-.21.12.75.75 0 0 0-.24.26 1.43 1.43 0 0 0-.14.34 1.1 1.1 0 0 0 0 .57 1.14 1.14 0 0 0 .28.49 1.53 1.53 0 0 0 1.5.4 1.43 1.43 0 0 0 .81-.64 1.24 1.24 0 0 0 .17-.37.52.52 0 0 0 0-.11 2.09 2.09 0 0 0 0-.35 1.47 1.47 0 0 0-.05-.42 1.69 1.69 0 0 0-.15-.43 1 1 0 0 0-.1-.17 2 2 0 0 0-.3-.35 1.69 1.69 0 0 0-.76-.4 1.43 1.43 0 0 0-.65 0 1.11 1.11 0 0 0-.39.16 1.08 1.08 0 0 0-.46.61.74.74 0 0 0-.05.39v.19a.79.79 0 0 0 .5.5 1.15 1.15 0 0 0 .37 0 .55.55 0 0 0 .24-.13.61.61 0 0 0 .19-.2zM679.18 236.39a1.4 1.4 0 0 0 .76 0c.23-.05-.24 0 0 0h.28-.13l-.19-.08a1.33 1.33 0 0 0 .68.18l.44.05-.38-.05a11.64 11.64 0 0 1 1.31.25l-.39-.16h.06a1.66 1.66 0 1 0 1.28-3 9.8 9.8 0 0 0-3.54 0 1.68 1.68 0 0 0-1.22 1.86 1.66 1.66 0 0 0 1.66 1.46 15 15 0 0 1 3.14.06l-.44-.06c.53.08 1.06.22 1.6.26l-.86-3.16-.3.19a1.51 1.51 0 0 0-.73 1.52 1.55 1.55 0 0 0 1.09 1.27l.35.12a1.69 1.69 0 0 0 2.08-1.19 1.72 1.72 0 0 0-1.18-2.08 6.87 6.87 0 0 0-1.43-.22l-1.12-.11a18 18 0 0 0-2.2 0l.45 3.32h.09l-.45.06c.43-.05.85-.09 1.28-.1s.86.05 1.29.07l-.45-3.27h-.06l.43-.06a8 8 0 0 0-2.06.28 1.66 1.66 0 0 0-.78.47c.19-.22.13-.13 0-.05l-.18.12a1.66 1.66 0 0 0-.84 1.23.92.92 0 0 0 .65.85zM705.64 238.33a2.36 2.36 0 0 0-1.71 1.76 2.13 2.13 0 0 0 0 1.55 1 1 0 0 0 .89.54 1 1 0 0 0 .95-.66 1 1 0 0 0-.47-1.16 1.18 1.18 0 0 0-1.37.17.79.79 0 0 0-.16.84.8.8 0 0 0 .71.48 1.42 1.42 0 0 0 .41-.08h-.21.13-.21.07l-.19-.08-.16-.12h.05l-.12-.16v.05l-.08-.19v.06-.42a.14.14 0 0 1 0 .06l.08-.19.12-.16.16-.12.19-.07h-.08H705.05h-.08l.19.08.16.12.12.16a.41.41 0 0 1-.05-.09l.08.19a.45.45 0 0 1 0-.11v.21a2.9 2.9 0 0 1 0-.72v.2a3 3 0 0 1 .17-.63l-.07.18a2.44 2.44 0 0 1 .14-.28v-.06c.05-.07-.09.12 0 .06l.11-.12.1-.09h.12s.12-.06 0 0h.08a.65.65 0 0 0-.34-1.25zM680.67 261a1.88 1.88 0 0 0 .22-.26c-.08.13 0 0 0 0l.08-.07s.11-.09 0 0a.94.94 0 0 1 .22-.12c.1-.06 0 0 0 0h.1a1 1 0 0 1 .25-.06s.16 0 0 0h.61a5.18 5.18 0 0 1 .56.17c.12 0-.22-.1 0 0l.13.06.24.12a4.08 4.08 0 0 0 .74.33 1 1 0 0 0 1.11-.45 1 1 0 0 0-.15-1.2 2.22 2.22 0 0 0-.42-.32c-.16-.08-.33-.14-.5-.21a4.83 4.83 0 0 0-.64-.22 3.73 3.73 0 0 0-1.66-.08 2.79 2.79 0 0 0-1.13.49 2 2 0 0 0-.88 1.2.72.72 0 0 0 .31.78.71.71 0 0 0 .84-.11z" fill="#291b4f" class="fill-000000"></path><path d="M700.11 238.32c-.11-2.81 3-5.09 5.74-4.54a6.28 6.28 0 0 1 4.64 6.23 8.9 8.9 0 0 1-4.13 7c4.12 5.51 8.56 11.28 14.95 13.85 1 .39 2.13.66 2.92 0a2.93 2.93 0 0 0 .82-1.85c.47-3 .17-6 .61-9 .89-6 4.68-11.23 5.32-17.23a4.56 4.56 0 0 0 4.68 2.88 4.08 4.08 0 0 0 3.45-4.13c-.17-2.47-2.61-4.06-4.79-5.26a7.36 7.36 0 0 0 3.76.65 2.53 2.53 0 0 0 2.2-2.67 3.39 3.39 0 0 0-1.13-1.7 21.35 21.35 0 0 0-8-4.77 8.31 8.31 0 0 0 4 .78 2.91 2.91 0 0 0 2.67-2.64c-.05-1.6-1.76-2.55-3.24-3.16a149.25 149.25 0 0 0-26.73-8 1.44 1.44 0 0 0 1.38-1.38 4.18 4.18 0 0 0-.56-2.07 12.8 12.8 0 0 0-3-4.45 4.65 4.65 0 0 0-5-.83c-1.58.88-2.09 3.43-.66 4.53-.84-2.66-3.63-4.13-6.21-5.17a11.84 11.84 0 0 0-4.64-1.12 4.54 4.54 0 0 0-4 2.22 2.85 2.85 0 0 0 1.47 3.94 30.42 30.42 0 0 0-9.19-1.9 5.34 5.34 0 0 0-3.09.54 3.8 3.8 0 0 0-1.32 4.2 8.9 8.9 0 0 0 2.63 3.85 14.26 14.26 0 0 0-8.84.72 2.65 2.65 0 0 0-1.08.71c-.71.9-.14 2.27.72 3a29.06 29.06 0 0 1 2.74 2 8 8 0 0 0-7.81 5 1.9 1.9 0 0 0-.09 1.42 2 2 0 0 0 1 .87 11.55 11.55 0 0 0 11.25-.73 11.58 11.58 0 0 0-4.58 4.2 2.67 2.67 0 0 0-.53 1.8c.18 1 1.38 1.59 2.44 1.72a14.41 14.41 0 0 0 6.54-1.31q8-3 15.8-6.32a6.8 6.8 0 0 0-2.93 3.58 2.14 2.14 0 0 0-.11 1.34c.27.77 1.19 1.06 2 1.19a15.23 15.23 0 0 0 6.74-.5c-2.09 1.33-1.73 4.43-1.11 6.83l1.52 5.9" fill="#291b4f" class="fill-000000"></path><path d="M700.77 238.32a4 4 0 0 1 3.06-3.68 4.34 4.34 0 0 1 4.63 1.86c2.41 3.33.45 7.52-2.6 9.62a1 1 0 0 0-.35 1.34c4.11 5.55 8.59 11.46 15.16 14.2 1.32.56 3 1 4.19 0s1.33-3 1.44-4.55c.16-2.17.07-4.36.34-6.52a25 25 0 0 1 1.49-5.58c1.5-4.06 3.43-7.91 4-12.26l-2.05.56a5.41 5.41 0 0 0 9.35 1.2c2.8-4-1.19-7.53-4.43-9.34l-1 2.26c1.82.66 3.91 1.22 5.69.15a3.42 3.42 0 0 0 1.57-4.32c-.75-1.68-2.66-3-4.12-4a23.21 23.21 0 0 0-5.63-2.77c-1.55-.53-2.18 1.88-.67 2.44 1.81.67 3.79 1.27 5.67.5a4 4 0 0 0 2.59-3.24c.27-3.5-4.05-4.72-6.58-5.7a149 149 0 0 0-24.32-7l-.33 2.48a2.64 2.64 0 0 0 2.42-1.7 4.51 4.51 0 0 0-.51-3.64c-1.08-2.29-2.47-4.68-4.87-5.75-2-.9-4.58-.8-6 1a4 4 0 0 0 .22 5.49c.85.76 2.51 0 2.07-1.2a9 9 0 0 0-4.52-4.87c-2.26-1.22-5.08-2.46-7.69-2.31-2.18.13-4.49 1.31-5.15 3.53a4 4 0 0 0 2.48 5c1.47.53 2.09-1.8.64-2.33a32.65 32.65 0 0 0-7.16-1.72c-2-.25-4.54-.61-6.31.7a4.89 4.89 0 0 0-1.73 4.68 9.24 9.24 0 0 0 3.07 5l1.16-2a15.94 15.94 0 0 0-5.76-.28 10.77 10.77 0 0 0-4.85 1.6 3 3 0 0 0-.77 3.75c.79 1.66 2.53 2.18 3.75 3.41l.85-2a9.21 9.21 0 0 0-6.42 2.23c-1.46 1.25-3.55 4-2.51 6s4.45 2.47 6.38 2.57a12.75 12.75 0 0 0 7.51-2 1.2 1.2 0 0 0-1.21-2.06c-2.26 1.19-5.3 3.61-5.67 6.34-.45 3.31 3.62 3.86 6 3.53 3.49-.49 6.91-2.17 10.16-3.45 3.49-1.37 7-2.81 10.41-4.28l-1.2-2c-2 1.23-5.24 5-3 7.27 1 1 2.57 1.1 3.86 1.18a16.93 16.93 0 0 0 5.7-.69l-.9-2.14c-1.9 1.35-2.34 3.47-2 5.67a60.2 60.2 0 0 0 2.27 8.29.8.8 0 0 0 1.55-.43c-.52-2.25-1.08-4.5-1.47-6.77-.25-1.45-.52-3.76.87-4.74 1-.73.45-2.53-.9-2.14a13.2 13.2 0 0 1-6.42.44c-.21 0-.73-.11-.85-.34-.23-.39.39-1.38.6-1.71a5.76 5.76 0 0 1 1.89-1.85 1.18 1.18 0 0 0-1.2-2c-5.19 2.2-10.44 4.31-15.73 6.27a21.51 21.51 0 0 1-3.67 1.1c-.88.16-2.74.43-3.41-.37s.93-2.34 1.44-2.89a11.33 11.33 0 0 1 2.9-2.15l-1.21-2.06a10.44 10.44 0 0 1-4.92 1.67c-1.54.1-3.8 0-5.12-.95s1-3.16 1.88-3.79a6.88 6.88 0 0 1 4.41-1.29 1.2 1.2 0 0 0 .84-2 24 24 0 0 0-2.56-1.91c-.35-.28-.86-.74-.84-1.23s.82-.77 1.3-.95a13.26 13.26 0 0 1 7.41-.41 1.2 1.2 0 0 0 1.16-2 7.2 7.2 0 0 1-2.4-3.65 2.31 2.31 0 0 1 2.13-2.9c3.3-.33 7 .73 10.07 1.86l.64-2.33c-1.32-.47-.94-2.26-.11-3 1.33-1.13 3.24-.87 4.77-.4 2.61.8 6.21 2.19 7.19 5l2.07-1.2a1.57 1.57 0 0 1 0-2.22c.77-.9 2.19-.69 3.15-.23a6.38 6.38 0 0 1 2.56 2.66c.18.3 1.88 3.56 1.33 3.59-1.35.08-1.81 2.19-.34 2.49a150 150 0 0 1 19 5.14 54 54 0 0 1 8.66 3.34c.86.47 2 1.39 1 2.35-1.25 1.15-3.29.26-4.62-.23l-.67 2.44a20.18 20.18 0 0 1 6.79 3.86c.72.63 2 1.59 1 2.48s-2.79.15-3.94-.26c-1.33-.47-2.16 1.59-.95 2.26 1.82 1 5.12 2.83 4 5.41-1.22 2.9-4.76 1.89-5.8-.52-.49-1.13-1.94-.38-2 .55-.49 4.26-2.55 8.1-4 12.08a25.6 25.6 0 0 0-1.44 6.09c-.23 2.3-.1 4.61-.33 6.9-.1 1.08-.12 2.55-1.56 2.35a8.9 8.9 0 0 1-2.56-1 23.6 23.6 0 0 1-4.9-3.46 63.13 63.13 0 0 1-7.93-9.18l-.35 1.34c4.21-3 6.51-9.11 2.3-13.16a5.72 5.72 0 0 0-6.21-1.29 5.43 5.43 0 0 0-3.49 5 .66.66 0 0 0 1.32 0zM740.38 478.88a466.16 466.16 0 0 1 17 80.71c.92 7.77 1.58 15.56 2.23 23.36.09 1 1.72 1.08 1.66 0a394.38 394.38 0 0 0-4.62-41.13c-2.18-13.71-5-27.31-8.49-40.75q-2.92-11.35-6.42-22.56c-.26-.86-1.61-.49-1.34.37zM662.43 450.69c7.18-5.35 14.43-10.61 21.5-16.09.66-.51-.22-1.66-.91-1.17-7.19 5.22-14.22 10.67-21.31 16-.72.54 0 1.79.72 1.23zM760.78 429.22a113 113 0 0 0 14.16 13c.73.55 1.71-.7 1-1.27a137.55 137.55 0 0 1-14.16-12.7c-.63-.65-1.6.34-1 1zM677.26 288.71c-17.46 5.73-32.56 16.86-47.32 27.82-31.53 23.4-51.09 30.9-82.07 83-3.9 6.57-6.38 13.93-10.48 20.38-3 4.7-6.6 9-9.26 13.89s-4.35 10.62-3.07 16c.34 1.41.87 2.85.57 4.27s-1.26 2.38-1.77 3.62c-1.92 4.61 2.76 9.27 7.29 11.36 4.31 2 9.35 3.16 13.79 1.47s7.66-7.05 5.67-11.36c6.38.52 12.66-2.39 17.53-6.55s8.55-9.51 12.17-14.79L597 413.54c3.9-5.69 7.83-11.42 12.74-16.27 11.39-11.29 27-16.95 41.86-23s30.12-13.5 39.1-26.79a45.41 45.41 0 0 0 5.21-39.64" fill="#291b4f" class="fill-000000"></path><path d="M677.08 288c-20.35 6.4-36.88 20-54 32.18-11.25 8-22.84 15.61-33.31 24.64-12.64 10.91-23.21 23.86-32.52 37.68-3.16 4.69-6.18 9.47-9.11 14.32s-5.35 10.18-7.88 15.39a102.76 102.76 0 0 1-8.88 14.34c-3.18 4.5-6.19 9.28-7.38 14.73a20.33 20.33 0 0 0-.23 8 21.09 21.09 0 0 1 .79 4c0 1.4-1.06 2.5-1.63 3.72-2.06 4.45 1.11 8.76 4.61 11.31 7.18 5.25 21.27 6.89 24.41-3.82a8.49 8.49 0 0 0-.39-5.85l-1 1.71c16.41 1.15 26.08-15.18 34.08-26.84q7.34-10.69 14.68-21.4c4.46-6.47 9.18-12.72 15.3-17.72 11.46-9.36 25.75-14.21 39.22-19.85 12.62-5.27 25.55-11.55 34.57-22.16a46.71 46.71 0 0 0 10-39.8 45 45 0 0 0-1.42-5.08c-.51-1.5-2.91-.86-2.39.66a44.54 44.54 0 0 1-6 40c-8 11.09-20.68 17.81-33 23.13-13 5.61-26.66 10.08-38.37 18.23a68.18 68.18 0 0 0-15.53 15.22c-4.94 6.55-9.42 13.46-14.05 20.22s-9 13.73-14 20.12c-4.56 5.76-10.3 11-17.68 12.64a18.91 18.91 0 0 1-5.46.38c-1-.07-1.29 1-1 1.71 1.73 4-1.63 8.56-5.38 9.85-4.83 1.64-10.76-.09-14.88-2.83a11.2 11.2 0 0 1-4.48-5.1 4.87 4.87 0 0 1-.17-3 32.9 32.9 0 0 1 1.71-3.41c1-2.47-.25-4.86-.55-7.34a19.24 19.24 0 0 1 .77-7.76c1.54-5.24 4.75-9.74 7.88-14.15a90.29 90.29 0 0 0 8.29-13.9c2.32-4.89 4.61-9.73 7.41-14.38s5.64-9.14 8.62-13.6c8.92-13.33 19-25.86 31-36.5 9.82-8.69 20.73-16 31.38-23.55 15.77-11.24 30.81-23.74 48.61-31.73q3.72-1.68 7.58-3c.84-.29.49-1.62-.37-1.35z" fill="#291b4f" class="fill-000000"></path><path d="M524.36 458.18c-2.22 3-4.44 6-6.62 9a67.08 67.08 0 0 0-5.7 8.6 27.63 27.63 0 0 0-2.25 19.15c.31 1.22 2.15.7 1.88-.52a26.7 26.7 0 0 1 2.73-18.78 89.91 89.91 0 0 1 5.18-7.93c2-2.91 4-5.85 6-8.78.52-.77-.69-1.43-1.22-.72zM516.59 491.84a11.62 11.62 0 0 0 1.69 8.92c.53.77 1.8 0 1.27-.75a10.44 10.44 0 0 1-1.71-7.82c.16-.82-1.07-1.17-1.25-.35zM524.59 491.8a10.84 10.84 0 0 0 2.72 9.84c.66.7 1.73-.37 1.05-1.05a9.4 9.4 0 0 1-2.48-8.43c.18-.84-1.1-1.2-1.29-.36zM537.73 505.4q.71-4.5 1.36-9c.19-1.28.32-2.59.63-3.85.22-.9.56-2 1.53-2.35s.61-2.07-.46-1.69c-2.63.92-2.85 3.93-3.14 6.29-.42 3.47-.84 6.94-1.23 10.42-.08.74 1.19.92 1.31.18zM545.44 501.77a24.05 24.05 0 0 0 7.73-15.52 23.58 23.58 0 0 0-.95-9 25.05 25.05 0 0 0-1.63-4.07 12.66 12.66 0 0 0-2.67-3.94 1 1 0 0 0-1.53 1.19c.59 1.22 1.49 2.29 2.13 3.49a22.09 22.09 0 0 1 1.61 3.9 22.94 22.94 0 0 1-5.66 23 .69.69 0 0 0 1 1z" fill="#291b4f" class="fill-000000"></path><path d="M650.29 375.32a58.18 58.18 0 0 0 12.58-3.62 74 74 0 0 0 11.9-5.54.76.76 0 0 0-.77-1.32 127.32 127.32 0 0 1-11.74 5.44q-2.88 1.08-5.81 2c-2.1.64-4.26 1.09-6.34 1.76-.66.22-.6 1.4.18 1.3zM696.52 293.73c8.06 2.56 16.7-.59 23.86-4.35a46.72 46.72 0 0 0 17.35-15.19c.75-1.12-1.06-2.17-1.79-1.05a45.53 45.53 0 0 1-16.22 14.32c-6.81 3.76-15 7.22-22.87 5.05a.63.63 0 0 0-.33 1.22z" fill="#6229ff" class="fill-18c4ff"></path><path d="M972.45 223.21a86.21 86.21 0 0 0-31.22 11.84c-1.58 1-3.13 2-4.64 3.12-1.14.82-2.77 1.7-2.71 3.3a1 1 0 0 0 1.93.26c.22-.76 1.05-1.2 1.66-1.64s1.39-1 2.09-1.51q2.13-1.49 4.33-2.83a83.77 83.77 0 0 1 29-11.06c1-.18.55-1.64-.41-1.48zM962.94 235.16a11.61 11.61 0 0 1 9.55 5.07 10.32 10.32 0 0 1 1.19 2.31 3.82 3.82 0 0 1 .39 1.37c-.11.77-1.08.65-1.67.7a16.27 16.27 0 0 1-6.88-.89 1 1 0 0 0-1.24.71c-3.11 7.85-11.58 10.85-19 13a1.14 1.14 0 0 0 .61 2.19c8.35-2 17.21-6 20.38-14.64l-1.24.71a17.42 17.42 0 0 0 9 .55c2.85-.67 1.77-3.58.8-5.49a12.73 12.73 0 0 0-11.85-6.87.65.65 0 0 0 0 1.3zM596.34 740.3a35.89 35.89 0 0 1-7.3-16.14q-6.82 8-13.85 15.88c-2.07 2.3-4.24 4.76-4.81 7.81-.62 3.31.77 6.64 2.33 9.63A77.64 77.64 0 0 0 613 793.59c3.17 1.23 7.34 2 9.48-.62 1.26-1.55 1.28-3.72 1.25-5.71q-.24-14.28-.47-28.56c-1.18-.55-2.39-1.06-3.58-1.59-8.84-3.92-17.33-9.21-23.34-16.81z" fill="#291b4f" class="fill-000000"></path><path d="M597.64 739a34.4 34.4 0 0 1-6.83-15.33 1.84 1.84 0 0 0-3.07-.8q-5.47 6.43-11.08 12.76c-3.08 3.48-7.27 7.14-8.09 12-.84 5 1.82 9.72 4.24 13.87a77.88 77.88 0 0 0 7.6 10.81 80 80 0 0 0 20.08 17.21 75.8 75.8 0 0 0 12 5.89c3.56 1.36 8.46 2.18 11.27-1.09 1.67-2 1.82-4.56 1.78-7 0-3.12-.1-6.24-.15-9.36q-.15-9.6-.31-19.2a1.84 1.84 0 0 0-.91-1.59 112.15 112.15 0 0 1-14.8-7.58A49.44 49.44 0 0 1 597.64 739a1.85 1.85 0 0 0-2.59 0 1.87 1.87 0 0 0 0 2.6 52.08 52.08 0 0 0 12.16 10.87c4.79 3.16 9.95 5.42 15.15 7.81l-.91-1.58q.12 7.75.25 15.51c0 2.54.09 5.09.13 7.63s.21 4.89.06 7.31c-.1 1.66-.68 3.2-2.43 3.62a9.46 9.46 0 0 1-5-.59 59.68 59.68 0 0 1-10.64-5A76.56 76.56 0 0 1 585 772a75.14 75.14 0 0 1-7.24-9.43c-2.24-3.47-4.86-7.42-5.6-11.55-.92-5.14 3.67-9 6.74-12.43q5.77-6.5 11.4-13.13l-3.06-.81a38.18 38.18 0 0 0 7.78 17 1.85 1.85 0 0 0 2.59 0 1.88 1.88 0 0 0 .03-2.65zM892.46 790.92c2.69-2.35 5.37-5.42 5.12-9-.61-8.94-15.58-7.51-21-14.68a17.81 17.81 0 0 1-2.61-6.63c-.08-.33-.15-.65-.23-1-15.93 5.4-31 13.06-45.54 21.49.36 2 .7 4.07 1 6.12.64 5 1.17 10.63 4.89 14.1 2.5 2.34 6 3.24 9.4 3.77a61.23 61.23 0 0 0 48.97-14.17z" fill="#291b4f" class="fill-000000"></path><path d="M893.76 792.22c3-2.63 6-6.17 5.64-10.41a8.93 8.93 0 0 0-3.81-6.62c-4.34-3.23-10.08-3.76-14.66-6.56a9.46 9.46 0 0 1-3.08-2.82c-1.3-2-1.75-4.38-2.3-6.65a1.84 1.84 0 0 0-2.26-1.28c-16.09 5.47-31.29 13.18-46 21.67a1.89 1.89 0 0 0-.84 2.07c1 5.65 1 11.87 3.51 17.13s8 7.42 13.62 8.22a63.2 63.2 0 0 0 33.84-4.52 62.1 62.1 0 0 0 16.32-10.23c1.78-1.55-.82-4.13-2.6-2.59A59.49 59.49 0 0 1 863 803a58.45 58.45 0 0 1-15.9.7c-4.71-.43-10.52-1.16-13.24-5.55a20 20 0 0 1-2.37-7.66c-.51-3.29-.88-6.59-1.46-9.86l-.85 2.07c14.42-8.34 29.31-15.93 45.11-21.31l-2.29-1.26c.85 3.54 1.76 7.17 4.51 9.75a21.71 21.71 0 0 0 6.91 4c2.4 1 4.9 1.67 7.25 2.73 1.86.84 3.84 1.91 4.68 3.77 1.6 3.55-1.68 7-4.2 9.26-1.76 1.55.85 4.14 2.61 2.58z" fill="#291b4f" class="fill-000000"></path><path d="M789.21 290.73c1.57 2 1.36 5.27 1.51 7.72.17 2.92.24 5.86.15 8.79a66.33 66.33 0 0 1-3 17.16c-.3 1 1.18 1.36 1.55.43 2.29-5.72 3-12.17 3.08-18.29a83.78 83.78 0 0 0-.38-9.24c-.22-2.51-.22-5.35-1.87-7.4-.48-.6-1.55.21-1.08.83zM716.69 368.52c5-4.64 11.07-11 9-18.46-1-3.65-3.59-6.53-5-10a12.31 12.31 0 0 1 1.2-11.14 21.17 21.17 0 0 1 9.12-7.75 55.65 55.65 0 0 1 11.76-4.17c4.29-1 8.43-.47 11.49 2.92 2.82 3.13 3.82 7.38 4.44 11.44.16 1.05.35 2.11.42 3.17 0 .54 0 1.06-.5 1.36a8 8 0 0 1-1.76.46q-3.43.89-6.85 1.8-6.85 1.81-13.67 3.75c-7.9 2.24-16.66 4.13-23.08 9.59-5.6 4.76-8.35 12.07-5.63 19.13s9.22 11.52 16.58 12.52c8 1.09 15.92-1.66 22.58-6 1.63-1.07 3.2-2.24 4.72-3.46a25.41 25.41 0 0 0 4.34-4c2.3-3 .86-6.44-2.46-7.83-1.93-.81-4.08-.84-6-1.6l.49 1.87c4.55-4.24 9.45-8.88 10.9-15.18a14.72 14.72 0 0 0-.44-8.59 12.5 12.5 0 0 0-5.59-6.2 30.22 30.22 0 0 0-3.82-1.8 21.69 21.69 0 0 0-4.8-1.61 8.1 8.1 0 0 0-7.5 3 14.3 14.3 0 0 0-3.25 8.21c-.25 3.31.84 6.12 2.15 9.08a9.06 9.06 0 0 1 .7 6 25.47 25.47 0 0 1-2.23 5.57 57.68 57.68 0 0 1-6.25 9.87 1.13 1.13 0 0 0 0 1.52c2.23 2.71 6.18 2.75 9.13 1.3 3.49-1.71 5.25-5.54 6.47-9a111.57 111.57 0 0 0 4-13.63c.68-3.18 1.87-8.13-1.59-10.18a1 1 0 0 0-1 1.67c1.39.82 1.47 2.58 1.38 4a33.52 33.52 0 0 1-1 5.35c-.89 3.77-2.13 7.45-3.38 11.11-1 3-2.31 6.6-5.14 8.43-2.29 1.47-5.63 1.68-7.44-.59V372a60.54 60.54 0 0 0 5.22-7.5 34.14 34.14 0 0 0 3.85-8.4 12 12 0 0 0-.91-8.41c-1.26-2.8-2.13-5.51-1.63-8.61a10.57 10.57 0 0 1 4.18-7.21c2.7-1.77 5.62-.37 8.3.74 2.41 1 4.93 2.22 6.59 4.31a10.73 10.73 0 0 1 2 7.64c-.6 6.7-5.92 11.65-10.55 16a1.14 1.14 0 0 0 .5 1.87c2.23.87 10.41 1.37 7.47 5.72a21.37 21.37 0 0 1-4.47 4.12 54.6 54.6 0 0 1-5 3.56c-6.67 4.19-14.73 6.7-22.58 4.76-7-1.73-13.11-7.61-13.46-15.11-.37-7.95 6.31-13.59 13-16.52a99.5 99.5 0 0 1 12.41-4.08q6.57-1.91 13.17-3.73c2.2-.61 4.4-1.2 6.6-1.79l3.31-.88a9.89 9.89 0 0 0 2.72-.85c1.53-.92 1.33-2.75 1.12-4.28a57.16 57.16 0 0 0-1.09-6.23 18.54 18.54 0 0 0-5.19-9.45 12.32 12.32 0 0 0-10.22-2.88 48.23 48.23 0 0 0-11.52 3.48 29.58 29.58 0 0 0-9.72 6 17.24 17.24 0 0 0-5 9.2 14.52 14.52 0 0 0 2.17 9.83c1.86 3.24 4.26 6.39 4.08 10.33s-2.49 7.16-4.92 9.91c-1.23 1.4-2.56 2.7-3.92 4-.65.62.33 1.59 1 1z" fill="#6229ff" class="fill-18c4ff"></path><path d="m90.09 387.37 53.8-129.59c2.73-6.59 5.67-13.46 11.21-17.95 3.61-2.92 8.05-4.6 12.45-6.09 34.17-11.58 70.61-14.65 106.67-16 31.91-1.21 64.64-1 94.69 9.8 2.56.91 5.21 2 6.9 4.12 3.18 4 1.77 9.8.14 14.64a563.08 563.08 0 0 1-76.44 148.93 40.08 40.08 0 0 1-6.28 7.33c-3.21 2.72-7.18 4.38-11.12 5.87-49.3 18.6-103.77 15.84-156.31 11.8-14.17-1.09-29-2.46-41-10.08-1.53-1-1.19-1.54-2-3.17-3.59-7.29 6.53-14.94 10.57-27.61" fill="#291b4f" class="fill-000000"></path><path d="m90.78 387.56 34.26-82q8.56-20.51 17.1-41c2.46-5.92 4.66-12.14 8.12-17.59a25.31 25.31 0 0 1 6.13-6.83 33.87 33.87 0 0 1 8.6-4.38 236.94 236.94 0 0 1 40.19-10.44 405.33 405.33 0 0 1 41.69-5q20.82-1.53 41.73-1.88a322 322 0 0 1 41.2 1.52c13.46 1.49 27 4.17 39.69 9 2.88 1.09 5.72 2.64 6.73 5.75.93 2.84.32 6-.46 8.79-1.73 6.25-4.16 12.39-6.41 18.47a561.63 561.63 0 0 1-33.09 72.84q-9.51 17.54-20.27 34.37-5.37 8.4-11 16.62-2.83 4.1-5.74 8.16a45 45 0 0 1-6.33 7.63c-4.95 4.39-11.95 6.39-18.1 8.44-6.31 2.11-12.73 3.89-19.21 5.39a263.76 263.76 0 0 1-40.24 5.87c-27.14 2-54.4.58-81.5-1.4-12.73-.94-25.92-1.39-38.09-5.6a50.2 50.2 0 0 1-8.68-3.93c-1-.59-2.19-1.08-2.67-2.23a17.93 17.93 0 0 1-1.1-2.91c-.9-3.92 2-8 3.95-11.18a69.07 69.07 0 0 0 7.08-14.31c.37-1.15-1.44-1.64-1.81-.5-1.79 5.49-5 10.3-8 15.23-2 3.31-4.17 7.19-3.33 11.19a18.34 18.34 0 0 0 1 2.76 5 5 0 0 0 1.49 2.36A34.09 34.09 0 0 0 92 415a76.83 76.83 0 0 0 18.63 4.76c6.46.91 13 1.37 19.48 1.85 7 .53 14 1 20.95 1.43 14 .82 28 1.34 42.06 1.16 27.78-.34 55.79-3.42 82.25-12.25 6.07-2 12.73-4 17.85-8a33.9 33.9 0 0 0 6.33-6.93c2.06-2.81 4.06-5.67 6.05-8.53q11.69-16.81 22.14-34.44a565.35 565.35 0 0 0 36.58-73.51q3.9-9.48 7.43-19.09 1.72-4.68 3.36-9.39a93 93 0 0 0 3-9.46c1.3-5.62.56-11.34-4.91-14.33a50.88 50.88 0 0 0-8.88-3.37q-5-1.59-10.11-2.85c-27.46-6.75-56.08-6.33-84.14-5.16-28.67 1.19-57.49 3.6-85.37 10.73a198.73 198.73 0 0 0-20.26 6.17c-5.82 2.16-10.89 5.18-14.61 10.25s-5.87 11-8.24 16.75l-8.83 21.33q-17.49 42.26-34.9 84.55l-8.46 20.51c-.35.85 1 1.22 1.38.38z" fill="#291b4f" class="fill-000000"></path><g fill="#6229ff" class="fill-18c4ff"><path d="M197.82 423.68q19.32-2.37 38.63-4.85c11.52-1.49 23.33-2.44 34.62-5.3a59.55 59.55 0 0 0 14.93-5.77 52.85 52.85 0 0 0 12.76-10.61 246.74 246.74 0 0 0 21.16-27.36q5.5-8.12 10.46-16.59a150.17 150.17 0 0 0 9.14-17.4c.47-1.12-1.36-1.84-1.94-.82-2.79 5-5.24 10.14-8 15.13s-5.82 10-9 14.86a263.63 263.63 0 0 1-20.64 27.78 62.57 62.57 0 0 1-12.12 11.55 52.09 52.09 0 0 1-14.42 6.61c-10.84 3.23-22.31 4.2-33.48 5.69q-21.14 2.81-42.27 5.75c-.75.1-.58 1.42.18 1.33zM532.6 418.76c.72-2.7-.62-5.59-.1-8.34a12.55 12.55 0 0 1 2.53-4.85l13-18a12 12 0 0 1 3-3.24 10.51 10.51 0 0 1 4-1.31c13.29-2.31 27.1 1 39.13 7.12 6.72 3.42 13.7 8.88 13.91 16.42.18 6.24-4.36 11.49-8.63 16l-13.93 14.87c-1 1.08-2.93 2.09-3.68.83 2-1.84 1.82-5.22.3-7.47s-4-3.61-6.49-4.75a74.75 74.75 0 0 0-34.1-6.79 32.11 32.11 0 0 1-8.26-.23"></path><path d="M534.56 419.3c.84-2.33.32-4.61.42-7 .09-2 1.6-3.84 2.75-5.43q4.71-6.47 9.43-12.94c1.4-1.92 2.71-4 4.26-5.77s3.36-2 5.52-2.31a51.39 51.39 0 0 1 14 .05 64.36 64.36 0 0 1 25.57 9.2 20.14 20.14 0 0 1 7.59 7.82 9.52 9.52 0 0 1 .87 4.68 12.55 12.55 0 0 1-1.71 5.23c-2.46 4.39-6.32 7.94-9.74 11.59l-6.28 6.71-3.06 3.26a13.15 13.15 0 0 1-1.33 1.36c.14-.11.09-.32-.22.08l.15-.05c-1 .21-.43.54 1.81 1l-.49 3.82c3-3 3.05-7.86.79-11.29-2.41-3.68-6.55-5.49-10.45-7.13a78.27 78.27 0 0 0-26-5.95c-5-.27-10.09.45-15.09-.08a2.94 2.94 0 0 0-2.93 2.58 3 3 0 0 0 2.13 3.27c3.9 1.19 8 .48 12 .48a69.22 69.22 0 0 1 11.41.91 75 75 0 0 1 11.26 2.79 47.19 47.19 0 0 1 9.82 4.23 8.51 8.51 0 0 1 1.94 1.53 5.15 5.15 0 0 1 .57.69c.09.14.45.89.35.64.09.24.27.93.27.92v.85a1.84 1.84 0 0 1-.55 1.1 3.18 3.18 0 0 0-.49 3.82c4.69 6.2 10.93-2.65 14.06-6 3.88-4.15 8-8.18 11.59-12.55 3.35-4 6.25-8.61 6.43-14 .18-5-2.27-9.55-5.68-13a41.21 41.21 0 0 0-12-8 77.92 77.92 0 0 0-15.68-5.53 61.06 61.06 0 0 0-16.66-1.59 46.34 46.34 0 0 0-8.22 1.05 11.87 11.87 0 0 0-7 4.91c-4 5.32-7.78 10.81-11.66 16.21-1.91 2.65-4.14 5.19-4.55 8.54-.36 3 1.08 5.8.78 8.75a2 2 0 0 0 1.76 2 2.05 2.05 0 0 0 2.23-1.46zM341.43 341.89a16.11 16.11 0 0 0 1.48-1c.5-.4-.39.24 0 0 .17-.1.33-.22.5-.33.33-.2.76-.33 1.08-.56-.15.11-.69.26-.22.1l.69-.21.47-.12c.11 0 .91-.14.19-.06s0 0 .19 0h1.21c.76 0-.8-.16-.29-.05a10.9 10.9 0 0 1 1.16.28c.34.1.68.22 1 .34.8.27-.75-.38-.31-.13.17.1.35.17.52.27a3.8 3.8 0 0 1 1 .64c-.15-.19-.85-.7-.28-.2.15.13.29.27.43.41.34.33 1 1.35.21.12.21.34.45.65.64 1 .08.14.15.28.22.42.42.76-.29-.87-.15-.38a12.26 12.26 0 0 1 .4 1.47l-.17-1.29a6.54 6.54 0 0 1 0 1.4l.18-1.31a5.49 5.49 0 0 1-.27 1l.5-1.19c-.12.29-.77 1.25-.18.48s-.2.13-.42.31l1-.78a7.69 7.69 0 0 1-1.55.89l1.22-.52a8.12 8.12 0 0 1-1.8.48l1.36-.18a8.26 8.26 0 0 1-1.86 0l1.35.18a8.15 8.15 0 0 1-1.86-.51l1.23.51a9.34 9.34 0 0 1-1.95-1.15l1 .8a9.81 9.81 0 0 1-1.61-1.61l.81 1a10.65 10.65 0 0 1-1.27-2.16l.52 1.24a10.14 10.14 0 0 1-.66-2.41l.18 1.38c-.19-1.63 0-3.27-1-4.7a4.88 4.88 0 0 0-7.56-1c-2.45 2.06-2.14 6.07-1.16 8.81a15.31 15.31 0 0 0 3.73 6c3.34 3.19 8.38 4.83 12.86 3.22a10.6 10.6 0 0 0 5.76-4.47 9.47 9.47 0 0 0 .59-8.19 13.91 13.91 0 0 0-11.2-8.95c-4.82-.53-10.95 2.24-12.51 7.1a3.13 3.13 0 0 0 4.55 3.49z"></path><path d="M356.31 346.87a13.68 13.68 0 0 0-4.09 10.42 9.65 9.65 0 0 0 2.49 6.22 9.19 9.19 0 0 0 5.65 2.51 9.34 9.34 0 0 0 9.28-5.22 11 11 0 0 0-.88-11.26 12.72 12.72 0 0 0-5-4.17 8.78 8.78 0 0 0-4.79-1 5.17 5.17 0 0 0-4.43 6.45 4.7 4.7 0 0 0 8.59 1.12l.47-1.12a4.62 4.62 0 0 0 0-2.5v-.12 2.5-.11l-.48 1.13.07-.09-.74.95.09-.07-.95.74.11-.06-1.13.48a2.23 2.23 0 0 1 .43-.1l-1.26.17a.88.88 0 0 1 .28 0l-1.25-.17a9.5 9.5 0 0 1 1.87.54l-1.12-.47a9.07 9.07 0 0 1 1.84 1.06l-.93-.72a8.35 8.35 0 0 1 1.49 1.48l-.71-.92a7.66 7.66 0 0 1 .87 1.52l-.45-1.08a7 7 0 0 1 .4 1.47l-.16-1.18a7.71 7.71 0 0 1 0 1.86L362 356a6.6 6.6 0 0 1-.44 1.62l.44-1a6.27 6.27 0 0 1-.75 1.3l.75-.92a5.34 5.34 0 0 1-1 .95l.87-.67a5.78 5.78 0 0 1-1.07.63l1-.43a6.26 6.26 0 0 1-1.35.36l1.12-.15a6 6 0 0 1-1.4 0l1.11.15a6.15 6.15 0 0 1-1.34-.35l1 .42a5.36 5.36 0 0 1-1.18-.69l.82.64a5.45 5.45 0 0 1-.77-.75l.63.82a6.35 6.35 0 0 1-.7-1.21l.39.93a8.2 8.2 0 0 1-.49-1.95l.13 1a12.37 12.37 0 0 1 0-3l-.13 1c.1-.72.18-1.43.27-2.14l-.12.91a13.68 13.68 0 0 1 .4-1.88c.09-.28.19-.56.29-.84s0 0-.07.14a2.77 2.77 0 0 0 .26-.55 2.82 2.82 0 0 0-.71-3.6 2.79 2.79 0 0 0-3.67.22z"></path><path d="M364.11 360.64c-2.17.42-3.1 3.07-3.58 4.94a18.07 18.07 0 0 0-.73 5.61 10.52 10.52 0 0 0 1.58 5.2 9.42 9.42 0 0 0 4.74 3.81c3.63 1.29 8.14-.25 9.8-3.83a15.42 15.42 0 0 0 .75-11.13 12.28 12.28 0 0 0-3.14-5c-1.94-1.77-4.65-3.26-7.34-2.52a4.39 4.39 0 0 0-3.15 3.65 4.54 4.54 0 0 0 2.1 4.38 10.41 10.41 0 0 0 2.34 1l-1.08-.46a6.84 6.84 0 0 1 1.36.8l-.91-.71a8.09 8.09 0 0 1 1.28 1.27l-.7-.91a8.37 8.37 0 0 1 1 1.73l-.45-1.07a10 10 0 0 1 .62 2.33l-.15-1.17a13.74 13.74 0 0 1 0 3.39l.16-1.16a10.11 10.11 0 0 1-.63 2.49l.44-1a6.13 6.13 0 0 1-.46.78l.67-.87a4 4 0 0 1-.5.51l.87-.7a4.52 4.52 0 0 1-.76.46l1-.43a4.75 4.75 0 0 1-1 .3l1.12-.15a5 5 0 0 1-1.28 0l1.12.15a4.9 4.9 0 0 1-1.06-.29l1 .42a7.06 7.06 0 0 1-.67-.35c-.35-.24-.24-.15.34.28l-.31-.28c-.15-.15-.27-.31-.42-.46.86.89.26.31.06 0s-.25-.51-.37-.76c-.31-.64.31.93.09.19a11.19 11.19 0 0 1-.42-1.8l.13 1a18 18 0 0 1 0-3.88c.06-.57.1-1.13.12-1.7 0-.85-.1.56 0-.12a3.76 3.76 0 0 0-.07-2 2.91 2.91 0 0 0-3.48-2z"></path><path d="M370.57 377.59a9.79 9.79 0 0 0-.78 2.81 20.74 20.74 0 0 0-.37 3.24 14.77 14.77 0 0 0 1.48 6.16c1.62 3.35 5.45 6 9.24 5.76a9.53 9.53 0 0 0 8.4-7.4c1-4-.36-8-2.45-11.39a18.05 18.05 0 0 0-3.68-4.6 8.89 8.89 0 0 0-3.94-2c-2.36-.44-5.37-.14-6.51 2.36-.79 1.73-.86 4 .69 5.36a5 5 0 0 0 3.42 1.47h1.16l-1.24-.16c.09 0 .8.08.82.17s-.94-.48-.53-.23a3.47 3.47 0 0 0 .33.18 2.13 2.13 0 0 1 .41.28s-.77-.69-.44-.32.44.41.64.63.34.39.5.59c.52.61-.57-.78-.06-.09s.79 1.08 1.15 1.64.59 1 .85 1.48c.07.12.12.25.19.38.23.4-.18-.38-.16-.41a7.83 7.83 0 0 0 .36 1.06c.08.27.13.54.19.81.17.8 0-.77 0-.1v1c0 .47.24-1.16 0-.37-.05.21-.1.43-.17.64s-.08.21-.11.32c-.11.39.19-.52.22-.51l-.31.58c-.05.09-.13.18-.17.27-.18.38.58-.61.27-.34a2.66 2.66 0 0 0-.53.53s.77-.5.44-.34a1.78 1.78 0 0 0-.27.17c-.09.05-.2.09-.29.15-.33.24.5-.28.51-.22s-1.28.26-.34.13-.25-.07-.36 0 .93.19.53.07c-.11 0-.23 0-.34-.08s-.22-.08-.33-.1c-.4-.08.43.19.43.2-.22-.16-.5-.26-.73-.4a1.57 1.57 0 0 0-.3-.2s.64.55.34.26-.42-.37-.62-.58a3.08 3.08 0 0 0-.24-.27c-.29-.29.24.32.25.33a6.67 6.67 0 0 0-.45-.72c-.06-.1-.11-.21-.17-.32-.3-.58.1.12.06.15s-.33-1-.35-1.09c-.08-.32-.13-.65-.21-1s0 .28 0 .31c-.05-.43-.09-.87-.16-1.3l-.18-1c-.08-.41 0 .22 0 .24a3.83 3.83 0 0 1-.07-.58 12.89 12.89 0 0 0-.4-2.85 3.13 3.13 0 0 0-2.57-2.22 3.07 3.07 0 0 0-3.09 1.48z"></path><path d="M383.34 389a25.74 25.74 0 0 0 1.36 10.79 27 27 0 0 0 2.25 5.34 7.61 7.61 0 0 0 2.59 2.67 6.86 6.86 0 0 0 4.75.61c4-.62 7.84-2.56 9.36-6.49 1.67-4.33-1.19-8.83-4.19-11.73a33.18 33.18 0 0 0-5-3.94 26.3 26.3 0 0 0-2.47-1.42 9 9 0 0 0-4.45-1.4 4.46 4.46 0 0 0-3.13 7.57 5.2 5.2 0 0 0 1.86 1.29l.55.24c-.64-.28-.8-.35-.48-.2l.38.16c.66.3 1.31.63 1.94 1s1.11.64 1.64 1c.26.18.53.35.79.54s1.27 1.1.27.18a34 34 0 0 1 3 2.78l.27.31c.38.43-.52-.75-.21-.26.17.27.35.52.51.8.07.12.12.24.19.36.3.49-.3-.89-.14-.35.07.24.3 1.31.2.52s-.07-.15 0 0c.09.51 0-.67.11-.57s-.11.41-.12.5c-.09.43-.4.31.18-.41a2.75 2.75 0 0 0-.17.29c-.23.47.67-.74.3-.37-.16.16-.89.8-.29.33s-.15.06-.31.16l-.73.37c-.48.24.89-.34.38-.16l-.33.12-1 .34c-.28.08-.57.15-.85.24s-.75 0 .34 0c-.19 0-.52-.09 0 0a3.06 3.06 0 0 1 1.11.45c.48.31.18.16.07 0a3.31 3.31 0 0 0-.31-.36c.12.07.53.74.21.27a33.72 33.72 0 0 1-2.22-3.69c-.19-.38-.38-.77-.55-1.16a2.76 2.76 0 0 1-.18-.39c.2.73.05.11 0-.08-.3-.76-.57-1.53-.81-2.32-.46-1.54-.81-3.13-1.17-4.7a2.79 2.79 0 0 0-3.06-2 2.83 2.83 0 0 0-2.41 2.74z"></path><path d="M397.51 404a3.34 3.34 0 0 1 .25.4c.21.38 0 .42 0-.14a5.78 5.78 0 0 0 .21.76c.12.5-.05-.39-.05-.4.06.4.1.81.18 1.21l.09.5c.11.6-.09-.88 0-.24.15 1.52.22 3.06.52 4.56a8.19 8.19 0 0 0 2.45 4.48 10.81 10.81 0 0 0 6.3 2.45c2.41.25 4.82-.07 6.64-1.81a8.66 8.66 0 0 0 2.42-5.74c.27-3.59-1.52-7.24-3.94-9.79a13.93 13.93 0 0 0-4.42-3.14 13.52 13.52 0 0 0-3-1.05 13.85 13.85 0 0 0-2.12-.29 5.06 5.06 0 0 0-3.56 1.63 4 4 0 0 0 0 5.62 6.6 6.6 0 0 0 1.84 1.3 8.92 8.92 0 0 0 2.47.46l-1.19-.16a10.36 10.36 0 0 1 2.52.7l-1-.44a11.74 11.74 0 0 1 2.27 1.33l-.88-.68a11.36 11.36 0 0 1 2 2l-.68-.87a10.5 10.5 0 0 1 1.23 2.1l-.43-1a9.23 9.23 0 0 1 .65 2.31l-.15-1.13a6.78 6.78 0 0 1 0 1.56l.15-1.12a6 6 0 0 1-.35 1.32l.42-1a4.33 4.33 0 0 1-.39.7l.65-.84a3.71 3.71 0 0 1-.55.57l.84-.65a3.41 3.41 0 0 1-.55.32l1-.42a3.3 3.3 0 0 1-.86.22l1.1-.15a16.21 16.21 0 0 1-3.48-.15l1.07.14a6.46 6.46 0 0 1-1-.22 2.45 2.45 0 0 0-.38-.13c.08-.07 1 .48.31.09-.37-.22-.24-.4.24.21-.07-.08-.17-.14-.24-.22s-.44-.53 0 0 .14.19.07.06-.51-1-.23-.34 0-.16-.1-.34a13.88 13.88 0 0 1-.4-1.57 20.43 20.43 0 0 0-.78-3.08 7.59 7.59 0 0 0-3.12-3.75 2.83 2.83 0 0 0-3.87 3.87z"></path><path d="M410.79 413.79c1.54 3 3.7 6.4 6.82 8a9.82 9.82 0 0 0 6.35.86 13 13 0 0 0 9.82-13.55c-.66-3.82-4.24-6.79-7.85-7.7a13.34 13.34 0 0 0-7.06.31 18.88 18.88 0 0 0-6.73 3.45 4.88 4.88 0 0 0-.76 5.88 5 5 0 0 0 5.48 2.23c1.6-.54 3-1.48 4.57-2.14l-1.17.49a13.8 13.8 0 0 1 3-.86l-1.3.17a9.92 9.92 0 0 1 2.31 0l-1.3-.17a7.17 7.17 0 0 1 1.94.54l-1.15-.49a10.06 10.06 0 0 1 1.07.59c.48.29-.9-.79-.35-.27l.46.45c.5.53-.52-.83-.28-.36a2.59 2.59 0 0 0 .26.46c-.54-.64-.33-.95-.16-.32 0 .21.09.43.12.64l-.17-1.23a6 6 0 0 1 0 1l.16-1.21a8.34 8.34 0 0 1-.3 1.27c-.19.59 0-.23.15-.35a3 3 0 0 0-.31.59c-.11.19-.23.38-.35.57s-.56.75-.09.16-.05 0-.13.13-.22.25-.34.37a8.19 8.19 0 0 0-.92.84c.17-.25.77-.56.17-.17-.17.11-.34.22-.52.32l-.43.23c-.09.05-.83.4-.15.09s0 0-.16 0l-.57.13c-.46.12.86 0 .39-.06a1.67 1.67 0 0 0-.59 0c.14-.11 1 .2.24 0a2.68 2.68 0 0 0-.6-.18c.17 0 .69.35.22.07-.18-.1-.37-.2-.55-.32l-.53-.35c-.56-.38.38.32 0 0l-1-.83-.8-.65c-.12-.08-.89-.69-.35-.26a39.74 39.74 0 0 1-2.19-1.9 2.83 2.83 0 0 0-4.44 3.43z"></path><path d="M428.42 410.42a9.42 9.42 0 0 0 .9 5.81 10.1 10.1 0 0 0 3.93 3.85 10.53 10.53 0 0 0 10.94-.4 12.47 12.47 0 0 0 5.63-10.31 7.66 7.66 0 0 0-1.11-4.15 7.38 7.38 0 0 0-3.21-2.69 13 13 0 0 0-6-1.3 13.19 13.19 0 0 0-6.28 1.82 13 13 0 0 0-2.56 2 5.87 5.87 0 0 0-1.87 4.89 4.36 4.36 0 0 0 1.67 3.33 4 4 0 0 0 3.69.76 7.33 7.33 0 0 0 3-1.49c.35-.33.67-.67 1-1l-1 .77a8.64 8.64 0 0 1 1.86-1.09l-1.19.5a10.68 10.68 0 0 1 2.6-.72l-1.32.18a9.1 9.1 0 0 1 2.15 0L440 411a8 8 0 0 1 1.9.5l-1.16-.49a5.61 5.61 0 0 1 1 .54l-1-.76a3.05 3.05 0 0 1 .44.44l-.75-1a1.79 1.79 0 0 1 .2.39l-.49-1.15a5 5 0 0 1 .16.64l-.17-1.27a8.22 8.22 0 0 1 0 1.92l.17-1.27a10.22 10.22 0 0 1-.68 2.55l.46-1.1a8.89 8.89 0 0 1-1 1.79l.7-.9a8.29 8.29 0 0 1-1.45 1.45l.87-.67a7.64 7.64 0 0 1-1.44.84l1-.43a6.43 6.43 0 0 1-1.61.45l1.07-.15a7 7 0 0 1-1.65 0l1 .14a7 7 0 0 1-1-.22c-.15 0-.29-.1-.44-.15-.65-.21.83.44.23.09-.27-.15-.55-.29-.81-.46s-.32-.46.15.13a2.5 2.5 0 0 0-.34-.31c-.22-.21-.43-.43-.63-.65s-.19-.24-.3-.34c.57.49.32.44.12.11l-.23-.39c-.27-.48.09 0 .07.19a6.06 6.06 0 0 0-.28-1.05 3 3 0 0 0-5.75 0z"></path><path d="M463.6 396.74a19.49 19.49 0 0 0-12.06 3.3 14.05 14.05 0 0 0-5.08 5 7.57 7.57 0 0 0 1.27 8.75c3.29 3.55 9.3 3.74 13.57 2.15 4.74-1.77 8.92-5.27 10.56-10.18a9.54 9.54 0 0 0-2-9.44c-2.42-2.67-6.62-3.7-9.72-1.54a4.63 4.63 0 0 0 3.56 8.45c-1.35.24-.82.09-.37.13l-1.28-.17a5 5 0 0 1 1 .32c.8.28-1.07-.67-.37-.17.17.12.78.54.06 0-.94-.71 0 .09 0 .08s-.76-1.13-.29-.35-.16-.47-.16-.47.17.68.17.72l-.18-1.33a6.37 6.37 0 0 1 0 1.38l.18-1.33a7.43 7.43 0 0 1-.16.82c-.05.18-.45 1.26-.12.46s-.09.12-.19.3-.41.64-.62 1 .34-.49.33-.44-.21.25-.26.31c-.21.23-.42.46-.65.68s-.39.37-.59.55l-.2.28c-.44.39.84-.59.34-.27s-1 .65-1.48.93l-.84.41c-.46.23.56-.27.53-.23s-.41.15-.51.19a11.68 11.68 0 0 1-1.67.43 1.4 1.4 0 0 1-.39.07c-.09 0 1.14-.1.6-.1h-1.86c-.55 0 .71.07.63.1a1.89 1.89 0 0 1-.45-.09l-.67-.2c-.68-.2 1 .52.16.06-.11-.07-.61-.28-.67-.42a5.09 5.09 0 0 1 .51.38s-.24-.21-.23-.23.63.84.39.5c0-.07-.09-.2-.15-.27.59.61.3.95.23.49 0 .17.05 1.15.09.49 0 0-.24.93-.06.53a1.94 1.94 0 0 0 .12-.39c0 .15-.49.9-.09.31l.22-.35a2.08 2.08 0 0 0 .24-.34s-.56.66-.25.33.47-.56.71-.83.74-.81 1.14-1.19c.23-.21.46-.43.7-.63s.86-.71.46-.38 0 0 .05 0l.56-.39q.4-.27.81-.51c.59-.35 1.2-.63 1.8-1 .34-.17-.15.06-.18.07.38-.18.79-.31 1.17-.49l.84-.4s.43-.19.12-.06.41-.15.4-.15a7.39 7.39 0 0 1 1.06-.23 2.75 2.75 0 0 0-.73-5.4z"></path><path d="M485.09 390.53c-4.53-.19-9.52.1-13.34 2.81-4.5 3.19-7.1 9.7-3.95 14.77s9.91 5.28 15 3.64c4.81-1.55 10.15-5.17 11.35-10.4a9.2 9.2 0 0 0-2.82-9.13 10.56 10.56 0 0 0-4.3-2.33 7.7 7.7 0 0 0-2.57-.24 6.52 6.52 0 0 0-3.93 1.68c-2.31 1.9-1.38 5.69.91 7.08a9.65 9.65 0 0 0 2.7 1c.29.07.57.15.85.24.58.18-1-.51-.49-.19.1.06.5.19.53.31s-1-.91-.41-.32c.05.06.35.29.34.35s-.7-1.15-.33-.43a1.57 1.57 0 0 0 .18.31c.37.43-.33-1.06-.22-.5 0 .2.15.77 0 0s0-.27 0-.09c0 .93.35-1.08 0-.2a2.57 2.57 0 0 0-.17.54s.48-.94.22-.52-.4.67-.6 1c-.33.53.66-.74.23-.3-.11.11-.2.23-.3.33a10.33 10.33 0 0 1-1.08 1c-.63.56.88-.61-.09.06-.29.2-.59.39-.89.57s-.71.4-1.07.58a2.42 2.42 0 0 0-.55.25c.18-.24 1-.39.17-.1a15 15 0 0 1-2.18.6 2.63 2.63 0 0 0-.6.11c.55-.33.95-.09.39-.07s-.91.07-1.36.07-.67 0-1-.05c-.18 0-.38-.05-.56-.05 1.19 0 .79.15.44 0-.17-.06-.36-.1-.54-.15-.63-.18.3-.12.37.15 0 0-.5-.29-.47-.28.21.06.74.65.32.18.85 1 .29.49.21.26-.25-.77.09.29.09.32a5.44 5.44 0 0 0-.3-1.1c.06.14 0 1.09.08.38v-.55c0-.18.06-.64 0 .05s0 0 .08-.21.11-.35.15-.53c.17-.62.08.3-.12.28 0 0 .47-.88.53-1s.16-.23.23-.35c.36-.6-1 1.24.09-.13l.33-.43c-.35.44-.42.54-.22.3s.3-.36.47-.53a12.48 12.48 0 0 1 .92-.86c.4-.35-.62.38-.11.1.22-.13.43-.29.66-.43s.71-.4 1.09-.59l.55-.25c-.71.31.24-.08.32-.11a41 41 0 0 1 5.47-1.39 2.83 2.83 0 0 0-.75-5.55z"></path><path d="M504 390a23.51 23.51 0 0 0-6.07-1.47 14.91 14.91 0 0 0-5.95.33 7.13 7.13 0 0 0-4.87 6.06 10 10 0 0 0 1.25 6.1 12.36 12.36 0 0 0 9.94 6.16c4.15.36 8.21-1.6 11.26-4.28 2.45-2.16 3.78-5.48 2-8.52-1.28-2.16-3.9-3.36-6.09-4.38l2.23 3.88-.13.81-1.09 1.88-.57.43c2.3-1.12 2.6-4.64.81-6.31a4.85 4.85 0 0 0-5.78-.69c-3 1.56-2.82 6.13 0 7.76.6.34 1.22.64 1.84 1 .14.07 1.83.78 1.82 1s-.76-.66-.45-.33-.36-.53-.33-.48a2.94 2.94 0 0 1-.14-2.44 2.13 2.13 0 0 1 .52-.8c-.09.08-.17.2-.26.29-.24.26-.5.5-.77.74l-.31.26c-.28.24-.52.2.26-.19-.24.12-.45.32-.68.46-.53.34-1.11.59-1.67.9 1.05-.59.29-.13-.07 0s-.6.18-.9.25-.53.08-.78.15c0 0 1-.08.5-.08h-.66a7.26 7.26 0 0 0-.8 0c.72-.09.8.14.39.06l-.34-.08a7.15 7.15 0 0 1-.79-.23c-.64-.2.89.44.07 0q-.37-.19-.72-.42l-.29-.19c-.37-.24.42.33.41.31a8.27 8.27 0 0 0-.61-.56c-.08-.08-.15-.17-.24-.25-.5-.52.44.65.16.23-.12-.19-.26-.38-.37-.58s-.14-.27-.22-.4c-.23-.36.2.51.19.49-.05-.22-.15-.43-.21-.65a1.49 1.49 0 0 1-.1-.44c0 .06.08 1.06.06.44a7.61 7.61 0 0 0 0-.83c-.05-.42-.05.35-.08.41a1.79 1.79 0 0 0 .09-.4c.06-.44-.23.4-.31.53-.28.43-.12.12 0 0s-.68.41-.32.26a1.13 1.13 0 0 1 .17-.19c.26-.14.14-.09-.36.14a4.51 4.51 0 0 0 .85-.24c.35-.08.71-.13 1.07-.19s-.16 0-.2 0a6.82 6.82 0 0 1 .79-.08l1.1-.07a36.29 36.29 0 0 1 5-.07 2.79 2.79 0 0 0 2.77-2.45 2.86 2.86 0 0 0-2-3.1z"></path><path d="M523 386.19a14.73 14.73 0 0 0-11.65 2.41c-2.24 1.68-4.46 4.1-4.59 7a6.2 6.2 0 0 0 1.82 4.62 9.4 9.4 0 0 0 3.9 2.14 32.75 32.75 0 0 0 7.2 1.46 13.74 13.74 0 0 0 6-.71 9.94 9.94 0 0 0 5.67-4.84 10.67 10.67 0 0 0 .7-7.33 9.65 9.65 0 0 0-5.88-6.58 5.47 5.47 0 0 0-7.39 4.24 5.31 5.31 0 0 0 .66 3.57 5.06 5.06 0 0 0 1.75 1.75 5.5 5.5 0 0 0 2.54.7A4.24 4.24 0 0 0 526 394a4.46 4.46 0 0 0 1.85-2.15 4.59 4.59 0 0 0-.93-4.93l-.1-.1 1.18 2v-.11l.17 1.23v-.13l-.17 1.24v-.13l-.47 1.12a.58.58 0 0 1 .14-.24l-.76 1 .11-.1-1 .76.12-.07-1.17.49a1.5 1.5 0 0 0 .34-.11L524 394a1.3 1.3 0 0 1 .44 0l-1.31-.18a2.23 2.23 0 0 1 .44.13l-1.18-.5a5.22 5.22 0 0 1 1 .6l-1-.76a5.3 5.3 0 0 1 .78.79l-.76-1a6.34 6.34 0 0 1 .74 1.29l-.49-1.15a6.08 6.08 0 0 1 .38 1.45l-.17-1.27a5.72 5.72 0 0 1 0 1.49l.17-1.26a5.34 5.34 0 0 1-.36 1.24l.48-1.13c-.11.23-.24.44-.36.66-.3.55.37-.56.4-.51s-.34.37-.37.39c-.67.64.89-.57.12-.08a8.44 8.44 0 0 1-.84.45l1.11-.47a8.88 8.88 0 0 1-2.29.6l1.24-.17a15 15 0 0 1-3.79-.07l1.22.17a32.57 32.57 0 0 1-4.13-.86c-.34-.09-.69-.19-1-.3s-.76-.52.29.14a5.12 5.12 0 0 0-.73-.39 2.53 2.53 0 0 1 1 1q.4 1.15.21.45l.15 1.14c0-.46-.07-.33-.13.39a3.24 3.24 0 0 1 .13-.49c.19-.81-.43.88 0 0a15.54 15.54 0 0 1 .87-1.4c.45-.65-.6.68-.06.09.19-.22.38-.45.59-.66l.48-.46.33-.28c.29-.24.23-.19-.19.15.06 0 1.19-.77 1.31-.83a3.22 3.22 0 0 1 .79-.39l-.35.16.41-.16c.34-.11 1.15-.5 1.5-.39-.42.05-.45.06-.12 0h.45a8.62 8.62 0 0 1 .88 0 2.79 2.79 0 0 0 .74-5.48z"></path><path d="M543.15 389.44a12.53 12.53 0 0 0-10.76.88 14.09 14.09 0 0 0-4.61 4.28 6.47 6.47 0 0 0-.91 5.48 8.15 8.15 0 0 0 3.36 4.18 10.75 10.75 0 0 0 6.18 1.67 18.06 18.06 0 0 0 5.67-1.06 12.06 12.06 0 0 0 3.08-1.45 7.61 7.61 0 0 0 3.24-4.49 10.71 10.71 0 0 0-1.74-7.89 14.46 14.46 0 0 0-2.33-2.84 12.49 12.49 0 0 0-3-2.17 14.8 14.8 0 0 0-3.49-1.24 10.31 10.31 0 0 0-1.45-.2 10 10 0 0 0-1.54.19 6.17 6.17 0 0 0-.62.11 8.32 8.32 0 0 0-1.2.37 4.88 4.88 0 0 0-2.32 1.6 4.29 4.29 0 0 0-1 2.71 4.62 4.62 0 0 0 3.28 4.31c.33.1.64.21 1 .34l-1.15-.48a17.73 17.73 0 0 0 2.17 1 12.9 12.9 0 0 1 1.24.42l-1.24-.53a12.88 12.88 0 0 1 2.71 1.58l-1.06-.82a10.76 10.76 0 0 1 1.72 1.72l-.81-1a9 9 0 0 1 1.13 1.95l-.51-1.22a6.55 6.55 0 0 1 .43 1.53l-.18-1.36v.63l.18-1.34a2.82 2.82 0 0 1-.15.57l.51-1.21a2.42 2.42 0 0 1-.35.58l.79-1a3.7 3.7 0 0 1-.49.48l1-.78a7.31 7.31 0 0 1-1.55.86l1.19-.51a15.07 15.07 0 0 1-3.77 1.09l1.3-.17a9 9 0 0 1-2.26 0l1.29.17a6.57 6.57 0 0 1-1.45-.37l1.15.49a5.45 5.45 0 0 1-1.15-.66l1 .74a6.54 6.54 0 0 1-.81-.77l.74 1a2.67 2.67 0 0 1-.31-.51l.47 1.11a1.59 1.59 0 0 1-.1-.39l.17 1.22a1.41 1.41 0 0 1 0-.41l-.16 1.21a4.66 4.66 0 0 1 .23-.81l-.45 1.06a10.09 10.09 0 0 1 1.15-1.95l-.67.85a10.75 10.75 0 0 1 1.82-1.81l-.8.62a11.12 11.12 0 0 1 1.6-1l.76-.38c.26-.13.78-.26-.24.08l.41-.16a11.15 11.15 0 0 1 1.72-.45c.53-.09-.64.06-.24 0h1.43a2.81 2.81 0 0 0 2.78-2.45 2.87 2.87 0 0 0-2-3.1z"></path></g><path d="M542.93 389.41c-2.45 3.75-4.73 7.62-7 11.47a.88.88 0 0 0 1.52.89c2.26-3.87 4.56-7.74 6.67-11.69a.67.67 0 0 0-1.15-.67z" fill="#291b4f" class="fill-000000"></path></svg>